<?xml version="1.0" encoding="utf-8"?>
<!-- Generator: Adobe Illustrator 18.1.1, SVG Export Plug-In . SVG Version: 6.00 Build 0)  -->
<!DOCTYPE svg PUBLIC "-//W3C//DTD SVG 1.1//EN" "http://www.w3.org/Graphics/SVG/1.1/DTD/svg11.dtd" [
	<!ENTITY ns_extend "http://ns.adobe.com/Extensibility/1.0/">
	<!ENTITY ns_ai "http://ns.adobe.com/AdobeIllustrator/10.0/">
	<!ENTITY ns_graphs "http://ns.adobe.com/Graphs/1.0/">
	<!ENTITY ns_vars "http://ns.adobe.com/Variables/1.0/">
	<!ENTITY ns_imrep "http://ns.adobe.com/ImageReplacement/1.0/">
	<!ENTITY ns_sfw "http://ns.adobe.com/SaveForWeb/1.0/">
	<!ENTITY ns_custom "http://ns.adobe.com/GenericCustomNamespace/1.0/">
	<!ENTITY ns_adobe_xpath "http://ns.adobe.com/XPath/1.0/">
]>
<svg version="1.1" id="Calque_1" xmlns:x="&ns_extend;" xmlns:i="&ns_ai;" xmlns:graph="&ns_graphs;"
	 xmlns="http://www.w3.org/2000/svg" xmlns:xlink="http://www.w3.org/1999/xlink" x="0px" y="0px" viewBox="0 0 743.6 99"
	 enable-background="new 0 0 743.6 99" xml:space="preserve"  preserveAspectRatio="xMinYMin">
<metadata>
	<sfw  xmlns="&ns_sfw;">
		<slices></slices>
		<sliceSourceBounds  width="743.6" height="99" bottomLeftOrigin="true" x="864" y="-462"></sliceSourceBounds>
	</sfw>
</metadata>
<g>
	<path fill="#989898" d="M178.4,69.8h2.7v21h-2.7V69.8z"/>
	<path fill="#989898" d="M184.8,75.6h2.5v2.3c0.7-1,1.6-1.7,2.5-2.1c0.9-0.4,1.9-0.6,2.9-0.6c1.7,0,3,0.5,3.8,1.4
		c0.8,0.9,1.2,2.3,1.2,4.1v10.1h-2.6v-9.6c0-1.4-0.3-2.4-0.8-3c-0.5-0.6-1.3-0.9-2.4-0.9c-0.6,0-1.1,0.1-1.7,0.3
		c-0.6,0.2-1.1,0.5-1.5,0.9c-0.5,0.4-0.9,0.9-1.1,1.4c-0.3,0.5-0.4,1.1-0.4,1.9v9h-2.6V75.6z"/>
	<path fill="#989898" d="M201.9,77.6h-2.4v-2h2.4v-1.3c0-0.8,0.1-1.5,0.4-2.1c0.2-0.6,0.6-1.1,1-1.5c0.4-0.4,0.9-0.7,1.5-0.9
		c0.6-0.2,1.2-0.3,1.8-0.3c0.5,0,0.9,0,1.3,0.1c0.4,0,0.8,0.1,1.3,0.3l-0.4,2c-0.3-0.1-0.6-0.2-0.9-0.2c-0.3,0-0.6,0-0.8,0
		c-0.7,0-1.3,0.2-1.8,0.5c-0.5,0.4-0.7,1-0.7,2v1.4h3.9v2h-3.9v13.2h-2.6V77.6z"/>
	<path fill="#989898" d="M216.4,91.2c-1.2,0-2.2-0.2-3.1-0.6c-0.9-0.4-1.7-0.9-2.3-1.6s-1.1-1.5-1.4-2.5s-0.5-2.1-0.5-3.4
		s0.2-2.4,0.5-3.4c0.4-1,0.9-1.9,1.5-2.6c0.6-0.7,1.4-1.3,2.3-1.6c0.9-0.4,1.9-0.6,3-0.6c1.1,0,2.2,0.2,3.1,0.6
		c0.9,0.4,1.7,0.9,2.3,1.6c0.6,0.7,1.1,1.5,1.5,2.5c0.3,1,0.5,2.1,0.5,3.3c0,1.3-0.2,2.4-0.5,3.4c-0.3,1-0.8,1.9-1.5,2.6
		c-0.6,0.7-1.4,1.2-2.3,1.6C218.6,91,217.6,91.2,216.4,91.2z M216.5,89.1c0.8,0,1.5-0.1,2.1-0.4c0.6-0.3,1.1-0.7,1.5-1.2
		c0.4-0.5,0.7-1.2,0.8-1.9c0.2-0.7,0.3-1.5,0.3-2.4c0-0.9-0.1-1.7-0.3-2.4c-0.2-0.7-0.5-1.3-0.8-1.9c-0.4-0.5-0.9-0.9-1.5-1.2
		c-0.6-0.3-1.3-0.4-2.1-0.4c-0.8,0-1.5,0.1-2.1,0.4c-0.6,0.3-1.1,0.7-1.4,1.2s-0.7,1.1-0.8,1.9c-0.2,0.7-0.3,1.5-0.3,2.4
		s0.1,1.7,0.3,2.4c0.2,0.7,0.5,1.4,0.8,1.9c0.4,0.5,0.9,0.9,1.4,1.2S215.6,89.1,216.5,89.1z"/>
	<path fill="#989898" d="M227.1,69.8h13v2.4h-10.3V79h9.7v2.4h-9.7v9.3h-2.7V69.8z"/>
	<path fill="#989898" d="M242.2,75.6h2.6v9.6c0,1.4,0.2,2.4,0.7,3c0.5,0.6,1.2,0.9,2.3,0.9c1.1,0,2.2-0.4,3.1-1.2
		c0.5-0.4,0.9-0.9,1.1-1.4s0.4-1.1,0.4-1.9v-9h2.6v15.2h-2.5v-2.4c-0.7,1-1.5,1.7-2.4,2.1c-0.9,0.5-1.8,0.7-2.8,0.7
		c-1.7,0-3-0.5-3.8-1.4c-0.8-0.9-1.2-2.3-1.2-4.2V75.6z"/>
	<path fill="#989898" d="M259.8,86.3c0.2,1.1,0.6,1.8,1.3,2.2c0.7,0.4,1.7,0.6,2.9,0.6c1.3,0,2.2-0.2,2.8-0.7c0.5-0.4,0.8-1,0.8-1.8
		c0-0.3,0-0.6-0.1-0.8c-0.1-0.3-0.2-0.5-0.4-0.7c-0.2-0.2-0.5-0.4-0.8-0.5c-0.4-0.2-0.8-0.3-1.4-0.4L263,84
		c-0.9-0.1-1.6-0.3-2.3-0.5c-0.6-0.2-1.2-0.5-1.6-0.8s-0.8-0.8-1-1.3c-0.2-0.5-0.3-1.1-0.3-1.8s0.2-1.3,0.5-1.9
		c0.3-0.5,0.7-1,1.3-1.4c0.5-0.4,1.2-0.7,1.9-0.9c0.7-0.2,1.5-0.3,2.4-0.3c1.1,0,2,0.1,2.8,0.3s1.3,0.5,1.8,0.9
		c0.5,0.4,0.8,0.8,1.1,1.3s0.5,1,0.6,1.6l-2.3,0.4c-0.1-0.4-0.3-0.8-0.5-1.1s-0.4-0.6-0.7-0.8c-0.3-0.2-0.7-0.4-1.1-0.5
		c-0.4-0.1-0.9-0.2-1.6-0.2c-0.7,0-1.3,0.1-1.8,0.2c-0.5,0.1-0.8,0.3-1.1,0.5c-0.3,0.2-0.5,0.5-0.6,0.7c-0.1,0.3-0.2,0.5-0.2,0.8
		c0,0.3,0,0.6,0.1,0.8s0.2,0.5,0.4,0.6c0.2,0.2,0.5,0.3,0.9,0.5c0.4,0.1,0.9,0.3,1.4,0.4l2.2,0.4c1.8,0.3,3.1,0.8,3.8,1.5
		c0.8,0.7,1.2,1.8,1.2,3.2c0,0.6-0.1,1.2-0.4,1.8c-0.3,0.5-0.6,1-1.1,1.4c-0.5,0.4-1.1,0.7-1.9,0.9c-0.8,0.2-1.7,0.3-2.7,0.3
		c-0.9,0-1.8-0.1-2.6-0.3c-0.8-0.2-1.5-0.5-2.1-0.8c-0.6-0.4-1.1-0.9-1.5-1.5c-0.4-0.6-0.6-1.4-0.6-2.3H259.8z"/>
	<path fill="#989898" d="M272.9,69.8h2.7v3h-2.7V69.8z M273,75.6h2.6v15.2H273V75.6z"/>
	<path fill="#989898" d="M285.8,91.2c-1.2,0-2.2-0.2-3.1-0.6c-0.9-0.4-1.7-0.9-2.3-1.6s-1.1-1.5-1.4-2.5s-0.5-2.1-0.5-3.4
		s0.2-2.4,0.5-3.4c0.4-1,0.9-1.9,1.5-2.6c0.6-0.7,1.4-1.3,2.3-1.6c0.9-0.4,1.9-0.6,3-0.6c1.1,0,2.2,0.2,3.1,0.6
		c0.9,0.4,1.7,0.9,2.3,1.6c0.6,0.7,1.1,1.5,1.5,2.5c0.3,1,0.5,2.1,0.5,3.3c0,1.3-0.2,2.4-0.5,3.4c-0.3,1-0.8,1.9-1.5,2.6
		c-0.6,0.7-1.4,1.2-2.3,1.6C288,91,286.9,91.2,285.8,91.2z M285.8,89.1c0.8,0,1.5-0.1,2.1-0.4c0.6-0.3,1.1-0.7,1.5-1.2
		c0.4-0.5,0.7-1.2,0.8-1.9c0.2-0.7,0.3-1.5,0.3-2.4c0-0.9-0.1-1.7-0.3-2.4c-0.2-0.7-0.5-1.3-0.8-1.9c-0.4-0.5-0.9-0.9-1.5-1.2
		c-0.6-0.3-1.3-0.4-2.1-0.4c-0.8,0-1.5,0.1-2.1,0.4c-0.6,0.3-1.1,0.7-1.4,1.2s-0.7,1.1-0.8,1.9c-0.2,0.7-0.3,1.5-0.3,2.4
		s0.1,1.7,0.3,2.4c0.2,0.7,0.5,1.4,0.8,1.9c0.4,0.5,0.9,0.9,1.4,1.2S285,89.1,285.8,89.1z"/>
	<path fill="#989898" d="M296.1,75.6h2.5v2.3c0.7-1,1.6-1.7,2.5-2.1c0.9-0.4,1.9-0.6,2.9-0.6c1.7,0,3,0.5,3.8,1.4
		c0.8,0.9,1.2,2.3,1.2,4.1v10.1h-2.6v-9.6c0-1.4-0.3-2.4-0.8-3c-0.5-0.6-1.3-0.9-2.4-0.9c-0.6,0-1.1,0.1-1.7,0.3
		c-0.6,0.2-1.1,0.5-1.5,0.9c-0.5,0.4-0.9,0.9-1.1,1.4c-0.3,0.5-0.4,1.1-0.4,1.9v9h-2.6V75.6z"/>
	<path fill="#989898" d="M335.8,83.8c-0.1,1.1-0.4,2-0.8,3c-0.4,0.9-1,1.7-1.7,2.4c-0.7,0.7-1.6,1.2-2.6,1.6c-1,0.4-2.2,0.6-3.5,0.6
		c-1.5,0-2.8-0.2-3.9-0.7s-2.1-1.2-2.9-2.1s-1.4-2.1-1.9-3.5c-0.4-1.4-0.7-2.9-0.7-4.7c0-1.8,0.2-3.3,0.7-4.7c0.5-1.4,1.1-2.5,2-3.5
		c0.8-0.9,1.8-1.7,3-2.1s2.4-0.7,3.7-0.7c1.3,0,2.4,0.2,3.4,0.5c0.9,0.3,1.7,0.8,2.4,1.4c0.7,0.6,1.2,1.3,1.6,2.2
		c0.4,0.8,0.7,1.8,0.9,2.8l-2.6,0.4c-0.2-0.8-0.4-1.5-0.7-2.1c-0.3-0.6-0.6-1.1-1.1-1.6c-0.4-0.4-1-0.8-1.6-1
		c-0.6-0.2-1.4-0.3-2.2-0.3c-1,0-2,0.2-2.8,0.6c-0.8,0.4-1.5,1-2.1,1.8c-0.6,0.8-1,1.7-1.3,2.7c-0.3,1.1-0.4,2.3-0.4,3.5
		s0.1,2.5,0.4,3.5c0.3,1.1,0.7,2,1.3,2.8c0.6,0.8,1.2,1.4,2.1,1.8c0.8,0.4,1.8,0.6,2.8,0.6c1,0,1.8-0.1,2.5-0.4s1.2-0.6,1.7-1
		c0.4-0.5,0.8-1,1-1.6c0.3-0.6,0.4-1.3,0.6-2.1H335.8z"/>
	<path fill="#989898" d="M338.5,75.6h2.5v2.4c0.6-0.8,1.2-1.5,2-1.9s1.6-0.7,2.4-0.7c0.5,0,1,0,1.4,0.1l-0.3,2.4
		c-0.2,0-0.4-0.1-0.6-0.1s-0.4,0-0.6,0c-0.5,0-1,0.1-1.4,0.2c-0.5,0.2-1,0.4-1.4,0.8c-0.4,0.4-0.8,0.8-1,1.3s-0.4,1.1-0.4,1.7v9
		h-2.6V75.6z"/>
	<path fill="#989898" d="M357.6,88.7c-0.5,0.7-1.2,1.2-2.1,1.7c-0.8,0.5-1.9,0.7-3.1,0.7c-0.8,0-1.5-0.1-2.1-0.3
		c-0.6-0.2-1.2-0.5-1.6-0.9c-0.5-0.4-0.8-0.9-1.1-1.4c-0.3-0.6-0.4-1.2-0.4-2c0-1,0.2-1.9,0.7-2.5c0.4-0.6,1-1.2,1.8-1.5
		c0.7-0.4,1.6-0.6,2.5-0.8c0.9-0.2,1.9-0.3,2.9-0.3l2.6-0.1v-0.6c0-1.3-0.3-2.2-0.8-2.8c-0.5-0.6-1.4-0.9-2.7-0.9
		c-1.2,0-2.1,0.2-2.7,0.6c-0.6,0.4-0.9,1-1.1,1.7l-2.3-0.3c0.3-1.4,0.9-2.4,2-3c1-0.6,2.5-1,4.2-1c1.1,0,2,0.1,2.8,0.4
		s1.4,0.6,1.8,1.1s0.8,1.1,1,1.8c0.2,0.7,0.3,1.5,0.3,2.4v9.9h-2.5V88.7z M357.5,83.1l-2.4,0.1c-1,0-1.9,0.1-2.6,0.3
		c-0.7,0.2-1.2,0.4-1.6,0.6c-0.4,0.3-0.7,0.6-0.9,1c-0.2,0.4-0.2,0.8-0.2,1.4c0,0.8,0.2,1.4,0.7,1.8s1.2,0.7,2.3,0.7
		c1.5,0,2.7-0.4,3.5-1.1s1.3-1.8,1.3-3.1V83.1z"/>
	<path fill="#989898" d="M361.6,75.6h2.8l3.1,12.1l3.5-12h2.6l3.4,12l3-12.1h2.7l-4.4,15.2h-2.7l-3.4-12.1l-3.4,12.1H366L361.6,75.6
		z"/>
	<path fill="#989898" d="M384.4,69.8h2.6v21h-2.6V69.8z"/>
	<path fill="#989898" d="M403.5,86.5c-0.3,1.5-0.9,2.6-2,3.5c-1,0.8-2.6,1.3-4.5,1.3c-2.3,0-4.1-0.7-5.3-2.1s-1.9-3.4-1.9-5.9
		c0-1.3,0.2-2.5,0.5-3.5c0.4-1,0.8-1.9,1.5-2.6c0.6-0.7,1.4-1.2,2.3-1.6c0.9-0.4,1.8-0.5,2.9-0.5c1.2,0,2.2,0.2,3,0.6
		c0.8,0.4,1.5,0.9,2.1,1.5c0.5,0.7,0.9,1.4,1.2,2.3c0.3,0.9,0.4,1.9,0.4,3v1.3h-11.3c0,0.8,0.1,1.5,0.3,2.1s0.5,1.2,0.9,1.7
		s0.9,0.9,1.4,1.1c0.6,0.3,1.2,0.4,2,0.4c1.3,0,2.2-0.2,2.8-0.7c0.6-0.5,1-1.1,1.2-2H403.5z M401.2,81.9c0-0.7-0.1-1.4-0.2-2
		c-0.2-0.6-0.4-1.1-0.7-1.5c-0.3-0.4-0.8-0.8-1.3-1s-1.2-0.4-1.9-0.4c-1.4,0-2.4,0.4-3.2,1.2c-0.8,0.8-1.2,2-1.3,3.6H401.2z"/>
	<path fill="#989898" d="M406.5,75.6h2.5v2.4c0.6-0.8,1.2-1.5,2-1.9s1.6-0.7,2.4-0.7c0.5,0,1,0,1.4,0.1l-0.3,2.4
		c-0.2,0-0.4-0.1-0.6-0.1s-0.4,0-0.6,0c-0.5,0-1,0.1-1.4,0.2c-0.5,0.2-1,0.4-1.4,0.8c-0.4,0.4-0.8,0.8-1,1.3s-0.4,1.1-0.4,1.7v9
		h-2.6V75.6z"/>
	<path fill="#989898" d="M423.6,77.6h-2.4v-2h2.4v-1.3c0-0.8,0.1-1.5,0.4-2.1c0.2-0.6,0.6-1.1,1-1.5c0.4-0.4,0.9-0.7,1.5-0.9
		c0.6-0.2,1.2-0.3,1.8-0.3c0.5,0,0.9,0,1.3,0.1c0.4,0,0.8,0.1,1.3,0.3l-0.4,2c-0.3-0.1-0.6-0.2-0.9-0.2c-0.3,0-0.6,0-0.8,0
		c-0.7,0-1.3,0.2-1.8,0.5c-0.5,0.4-0.7,1-0.7,2v1.4h3.9v2h-3.9v13.2h-2.6V77.6z"/>
	<path fill="#989898" d="M438.2,91.2c-1.2,0-2.2-0.2-3.1-0.6c-0.9-0.4-1.7-0.9-2.3-1.6s-1.1-1.5-1.4-2.5s-0.5-2.1-0.5-3.4
		s0.2-2.4,0.5-3.4c0.4-1,0.9-1.9,1.5-2.6c0.6-0.7,1.4-1.3,2.3-1.6c0.9-0.4,1.9-0.6,3-0.6c1.1,0,2.2,0.2,3.1,0.6
		c0.9,0.4,1.7,0.9,2.3,1.6c0.6,0.7,1.1,1.5,1.5,2.5c0.3,1,0.5,2.1,0.5,3.3c0,1.3-0.2,2.4-0.5,3.4c-0.3,1-0.8,1.9-1.5,2.6
		c-0.6,0.7-1.4,1.2-2.3,1.6C440.3,91,439.3,91.2,438.2,91.2z M438.2,89.1c0.8,0,1.5-0.1,2.1-0.4c0.6-0.3,1.1-0.7,1.5-1.2
		c0.4-0.5,0.7-1.2,0.8-1.9c0.2-0.7,0.3-1.5,0.3-2.4c0-0.9-0.1-1.7-0.3-2.4c-0.2-0.7-0.5-1.3-0.8-1.9c-0.4-0.5-0.9-0.9-1.5-1.2
		c-0.6-0.3-1.3-0.4-2.1-0.4c-0.8,0-1.5,0.1-2.1,0.4c-0.6,0.3-1.1,0.7-1.4,1.2s-0.7,1.1-0.8,1.9c-0.2,0.7-0.3,1.5-0.3,2.4
		s0.1,1.7,0.3,2.4c0.2,0.7,0.5,1.4,0.8,1.9c0.4,0.5,0.9,0.9,1.4,1.2S437.4,89.1,438.2,89.1z"/>
	<path fill="#989898" d="M448.4,75.6h2.5v2.4c0.6-0.8,1.2-1.5,2-1.9s1.6-0.7,2.4-0.7c0.5,0,1,0,1.4,0.1l-0.3,2.4
		c-0.2,0-0.4-0.1-0.6-0.1s-0.4,0-0.6,0c-0.5,0-1,0.1-1.4,0.2c-0.5,0.2-1,0.4-1.4,0.8c-0.4,0.4-0.8,0.8-1,1.3s-0.4,1.1-0.4,1.7v9
		h-2.6V75.6z"/>
	<path fill="#989898" d="M463,69.8h3.1l4.4,17.3l4.6-17.2h2.9l4.5,17.2l4.4-17.3h2.9l-5.8,21H481l-4.7-17.6l-4.6,17.6h-2.8L463,69.8
		z"/>
	<path fill="#989898" d="M503.3,86.5c-0.3,1.5-0.9,2.6-2,3.5c-1,0.8-2.6,1.3-4.5,1.3c-2.3,0-4.1-0.7-5.3-2.1s-1.9-3.4-1.9-5.9
		c0-1.3,0.2-2.5,0.5-3.5c0.4-1,0.8-1.9,1.5-2.6c0.6-0.7,1.4-1.2,2.3-1.6c0.9-0.4,1.8-0.5,2.9-0.5c1.2,0,2.2,0.2,3,0.6
		c0.8,0.4,1.5,0.9,2.1,1.5c0.5,0.7,0.9,1.4,1.2,2.3c0.3,0.9,0.4,1.9,0.4,3v1.3h-11.3c0,0.8,0.1,1.5,0.3,2.1s0.5,1.2,0.9,1.7
		s0.9,0.9,1.4,1.1c0.6,0.3,1.2,0.4,2,0.4c1.3,0,2.2-0.2,2.8-0.7c0.6-0.5,1-1.1,1.2-2H503.3z M501,81.9c0-0.7-0.1-1.4-0.2-2
		c-0.2-0.6-0.4-1.1-0.7-1.5c-0.3-0.4-0.8-0.8-1.3-1s-1.2-0.4-1.9-0.4c-1.4,0-2.4,0.4-3.2,1.2c-0.8,0.8-1.2,2-1.3,3.6H501z"/>
	<path fill="#989898" d="M506.4,69.8h2.6v7.9c0.6-0.8,1.4-1.5,2.2-1.9s1.8-0.7,2.9-0.7c1.1,0,2,0.2,2.8,0.6c0.8,0.4,1.5,0.9,2,1.6
		c0.5,0.7,0.9,1.5,1.2,2.5c0.3,1,0.4,2,0.4,3.2c0,1.3-0.2,2.4-0.5,3.4s-0.8,1.9-1.4,2.6c-0.6,0.7-1.3,1.2-2.1,1.6
		c-0.8,0.4-1.8,0.6-2.8,0.6c-0.9,0-1.7-0.2-2.6-0.5c-0.8-0.4-1.6-1-2.2-1.9v1.9h-2.5V69.8z M508.9,83.6c0,1,0.1,1.8,0.3,2.5
		c0.2,0.7,0.5,1.3,0.9,1.7c0.4,0.5,0.9,0.8,1.4,1c0.5,0.2,1.1,0.3,1.8,0.3c0.6,0,1.2-0.1,1.8-0.3c0.5-0.2,1-0.6,1.4-1
		c0.4-0.5,0.7-1.1,0.9-1.9c0.2-0.8,0.3-1.7,0.3-2.8c0-1.1-0.1-2.1-0.4-2.8s-0.6-1.4-1-1.8c-0.4-0.5-0.8-0.8-1.3-1
		c-0.5-0.2-1-0.3-1.5-0.3c-0.7,0-1.3,0.1-1.9,0.3c-0.6,0.2-1.1,0.6-1.5,1s-0.8,1-1,1.7s-0.4,1.5-0.4,2.3V83.6z"/>
	<path fill="#989898" d="M538.8,88.7c-0.5,0.7-1.2,1.2-2.1,1.7c-0.8,0.5-1.9,0.7-3.1,0.7c-0.8,0-1.5-0.1-2.1-0.3
		c-0.6-0.2-1.2-0.5-1.6-0.9c-0.5-0.4-0.8-0.9-1.1-1.4c-0.3-0.6-0.4-1.2-0.4-2c0-1,0.2-1.9,0.7-2.5c0.4-0.6,1-1.2,1.8-1.5
		c0.7-0.4,1.6-0.6,2.5-0.8c0.9-0.2,1.9-0.3,2.9-0.3l2.6-0.1v-0.6c0-1.3-0.3-2.2-0.8-2.8c-0.5-0.6-1.4-0.9-2.7-0.9
		c-1.2,0-2.1,0.2-2.7,0.6c-0.6,0.4-0.9,1-1.1,1.7l-2.3-0.3c0.3-1.4,0.9-2.4,2-3c1-0.6,2.5-1,4.2-1c1.1,0,2,0.1,2.8,0.4
		s1.4,0.6,1.8,1.1s0.8,1.1,1,1.8c0.2,0.7,0.3,1.5,0.3,2.4v9.9h-2.5V88.7z M538.7,83.1l-2.4,0.1c-1,0-1.9,0.1-2.6,0.3
		c-0.7,0.2-1.2,0.4-1.6,0.6c-0.4,0.3-0.7,0.6-0.9,1c-0.2,0.4-0.2,0.8-0.2,1.4c0,0.8,0.2,1.4,0.7,1.8s1.2,0.7,2.3,0.7
		c1.5,0,2.7-0.4,3.5-1.1s1.3-1.8,1.3-3.1V83.1z"/>
	<path fill="#989898" d="M544.6,75.6h2.5v2.3c0.7-1,1.6-1.7,2.5-2.1c0.9-0.4,1.9-0.6,2.9-0.6c1.7,0,3,0.5,3.8,1.4
		c0.8,0.9,1.2,2.3,1.2,4.1v10.1h-2.6v-9.6c0-1.4-0.3-2.4-0.8-3c-0.5-0.6-1.3-0.9-2.4-0.9c-0.6,0-1.1,0.1-1.7,0.3
		c-0.6,0.2-1.1,0.5-1.5,0.9c-0.5,0.4-0.9,0.9-1.1,1.4c-0.3,0.5-0.4,1.1-0.4,1.9v9h-2.6V75.6z"/>
	<path fill="#989898" d="M571.8,88.6c-0.6,0.8-1.4,1.5-2.2,2c-0.8,0.5-1.8,0.7-2.9,0.7s-2.1-0.2-2.9-0.6s-1.5-1-2-1.7
		c-0.5-0.7-0.9-1.6-1.2-2.5c-0.3-1-0.4-2-0.4-3.1c0-1.3,0.2-2.4,0.5-3.4c0.3-1,0.8-1.9,1.3-2.6c0.6-0.7,1.3-1.2,2.1-1.6
		c0.8-0.4,1.8-0.6,2.8-0.6c0.8,0,1.6,0.2,2.4,0.5c0.8,0.3,1.6,0.9,2.3,1.8v-7.6h2.6v21h-2.5V88.6z M571.8,82.7
		c0-1.2-0.1-2.2-0.4-2.8s-0.7-1.2-1.3-1.7c-0.4-0.4-0.9-0.6-1.3-0.7c-0.4-0.1-0.9-0.2-1.5-0.2c-0.6,0-1.2,0.1-1.8,0.3
		c-0.5,0.2-1,0.6-1.4,1c-0.4,0.5-0.7,1.1-0.9,1.9c-0.2,0.8-0.3,1.7-0.3,2.8c0,1.1,0.1,2.1,0.4,2.8s0.6,1.4,1,1.8
		c0.4,0.5,0.9,0.8,1.4,1c0.5,0.2,1,0.3,1.5,0.3c0.6,0,1.1-0.1,1.5-0.2c0.5-0.1,0.9-0.4,1.4-0.7c0.6-0.5,1-1.1,1.3-1.8
		c0.3-0.7,0.5-1.6,0.5-2.7V82.7z"/>
	<path fill="#989898" d="M585.5,84.8c0.2,1.5,0.8,2.5,1.8,3.2c0.9,0.7,2.3,1,4.2,1c0.9,0,1.7-0.1,2.3-0.3c0.6-0.2,1.1-0.5,1.5-0.8
		c0.4-0.3,0.6-0.7,0.8-1.2c0.2-0.5,0.2-0.9,0.2-1.5c0-0.4,0-0.8-0.1-1.2c-0.1-0.4-0.3-0.7-0.6-1c-0.3-0.3-0.7-0.6-1.2-0.8
		s-1.1-0.4-1.9-0.6l-2.6-0.5c-1-0.2-2-0.4-2.8-0.7c-0.8-0.3-1.5-0.7-2-1.1c-0.6-0.5-1-1-1.3-1.7c-0.3-0.7-0.4-1.5-0.4-2.5
		c0-1,0.2-1.8,0.6-2.5c0.4-0.7,0.9-1.3,1.6-1.8s1.5-0.9,2.4-1.1s2-0.4,3.1-0.4c1.4,0,2.6,0.2,3.5,0.5c0.9,0.3,1.7,0.7,2.3,1.2
		c0.6,0.5,1,1.1,1.3,1.8c0.3,0.7,0.5,1.3,0.7,2l-2.5,0.5c-0.2-0.6-0.4-1.1-0.6-1.6c-0.2-0.5-0.6-0.8-1-1.1c-0.4-0.3-0.9-0.5-1.5-0.7
		c-0.6-0.2-1.3-0.2-2.1-0.2c-1,0-1.8,0.1-2.4,0.3c-0.6,0.2-1.2,0.4-1.6,0.7c-0.4,0.3-0.7,0.7-0.8,1.1s-0.2,0.9-0.2,1.3
		c0,0.5,0.1,1,0.2,1.3c0.1,0.4,0.3,0.7,0.6,1c0.3,0.3,0.7,0.5,1.2,0.7c0.5,0.2,1.1,0.3,1.8,0.5l2.9,0.5c2.2,0.4,3.8,1.1,4.8,2
		c1,1,1.5,2.3,1.5,4.2c0,0.8-0.2,1.6-0.5,2.4c-0.3,0.7-0.8,1.4-1.4,1.9c-0.6,0.5-1.4,1-2.4,1.3s-2.1,0.5-3.4,0.5
		c-1.2,0-2.4-0.1-3.4-0.4c-1-0.2-1.9-0.6-2.6-1.2c-0.7-0.5-1.3-1.2-1.8-2c-0.5-0.8-0.7-1.8-0.8-2.9H585.5z"/>
	<path fill="#989898" d="M608.8,91.2c-1.2,0-2.2-0.2-3.1-0.6c-0.9-0.4-1.7-0.9-2.3-1.6s-1.1-1.5-1.4-2.5s-0.5-2.1-0.5-3.4
		s0.2-2.4,0.5-3.4c0.4-1,0.9-1.9,1.5-2.6c0.6-0.7,1.4-1.3,2.3-1.6c0.9-0.4,1.9-0.6,3-0.6c1.1,0,2.2,0.2,3.1,0.6
		c0.9,0.4,1.7,0.9,2.3,1.6c0.6,0.7,1.1,1.5,1.5,2.5c0.3,1,0.5,2.1,0.5,3.3c0,1.3-0.2,2.4-0.5,3.4c-0.3,1-0.8,1.9-1.5,2.6
		c-0.6,0.7-1.4,1.2-2.3,1.6C611,91,609.9,91.2,608.8,91.2z M608.8,89.1c0.8,0,1.5-0.1,2.1-0.4c0.6-0.3,1.1-0.7,1.5-1.2
		c0.4-0.5,0.7-1.2,0.8-1.9c0.2-0.7,0.3-1.5,0.3-2.4c0-0.9-0.1-1.7-0.3-2.4c-0.2-0.7-0.5-1.3-0.8-1.9c-0.4-0.5-0.9-0.9-1.5-1.2
		c-0.6-0.3-1.3-0.4-2.1-0.4c-0.8,0-1.5,0.1-2.1,0.4c-0.6,0.3-1.1,0.7-1.4,1.2s-0.7,1.1-0.8,1.9c-0.2,0.7-0.3,1.5-0.3,2.4
		s0.1,1.7,0.3,2.4c0.2,0.7,0.5,1.4,0.8,1.9c0.4,0.5,0.9,0.9,1.4,1.2S608,89.1,608.8,89.1z"/>
	<path fill="#989898" d="M632.2,85.6c-0.3,1.7-0.9,3.1-2,4.1c-1.1,1-2.6,1.5-4.6,1.5c-1.2,0-2.2-0.2-3.1-0.6
		c-0.9-0.4-1.6-0.9-2.2-1.6c-0.6-0.7-1-1.5-1.4-2.5c-0.3-1-0.5-2.1-0.5-3.3c0-1.2,0.2-2.3,0.5-3.3s0.8-1.9,1.4-2.6s1.4-1.3,2.3-1.6
		c0.9-0.4,1.9-0.6,3.1-0.6c1.8,0,3.2,0.4,4.2,1.3s1.6,2.1,1.9,3.7l-2.6,0.5c-0.1-0.5-0.2-0.9-0.4-1.4c-0.2-0.4-0.4-0.8-0.7-1.1
		c-0.3-0.3-0.7-0.5-1.1-0.7c-0.4-0.2-0.9-0.2-1.5-0.2c-0.8,0-1.5,0.2-2.1,0.5c-0.6,0.3-1,0.7-1.4,1.3c-0.4,0.5-0.6,1.2-0.8,1.9
		c-0.2,0.7-0.2,1.5-0.2,2.3s0.1,1.6,0.2,2.3s0.4,1.4,0.8,1.9c0.4,0.5,0.8,1,1.4,1.3c0.6,0.3,1.3,0.5,2.1,0.5c1.2,0,2.2-0.3,2.8-0.9
		c0.6-0.6,1-1.5,1.2-2.6H632.2z"/>
	<path fill="#989898" d="M634.9,69.8h2.7v3h-2.7V69.8z M635,75.6h2.6v15.2H635V75.6z"/>
	<path fill="#989898" d="M650.4,88.7c-0.5,0.7-1.2,1.2-2.1,1.7c-0.8,0.5-1.9,0.7-3.1,0.7c-0.8,0-1.5-0.1-2.1-0.3
		c-0.6-0.2-1.2-0.5-1.6-0.9c-0.5-0.4-0.8-0.9-1.1-1.4c-0.3-0.6-0.4-1.2-0.4-2c0-1,0.2-1.9,0.7-2.5c0.4-0.6,1-1.2,1.8-1.5
		c0.7-0.4,1.6-0.6,2.5-0.8c0.9-0.2,1.9-0.3,2.9-0.3l2.6-0.1v-0.6c0-1.3-0.3-2.2-0.8-2.8c-0.5-0.6-1.4-0.9-2.7-0.9
		c-1.2,0-2.1,0.2-2.7,0.6c-0.6,0.4-0.9,1-1.1,1.7l-2.3-0.3c0.3-1.4,0.9-2.4,2-3c1-0.6,2.5-1,4.2-1c1.1,0,2,0.1,2.8,0.4
		s1.4,0.6,1.8,1.1s0.8,1.1,1,1.8c0.2,0.7,0.3,1.5,0.3,2.4v9.9h-2.5V88.7z M650.4,83.1l-2.4,0.1c-1,0-1.9,0.1-2.6,0.3
		c-0.7,0.2-1.2,0.4-1.6,0.6c-0.4,0.3-0.7,0.6-0.9,1c-0.2,0.4-0.2,0.8-0.2,1.4c0,0.8,0.2,1.4,0.7,1.8s1.2,0.7,2.3,0.7
		c1.5,0,2.7-0.4,3.5-1.1s1.3-1.8,1.3-3.1V83.1z"/>
	<path fill="#989898" d="M656.2,69.8h2.6v21h-2.6V69.8z"/>
	<path fill="#989898" d="M668.5,69.8h3.4l6.8,17.8l6.9-17.8h3.2v21h-2.5V74.2l-6.6,16.6h-2.2L671,74.3v16.5h-2.5V69.8z"/>
	<path fill="#989898" d="M705.6,86.5c-0.3,1.5-0.9,2.6-2,3.5c-1,0.8-2.6,1.3-4.5,1.3c-2.3,0-4.1-0.7-5.3-2.1s-1.9-3.4-1.9-5.9
		c0-1.3,0.2-2.5,0.5-3.5c0.4-1,0.8-1.9,1.5-2.6c0.6-0.7,1.4-1.2,2.3-1.6c0.9-0.4,1.8-0.5,2.9-0.5c1.2,0,2.2,0.2,3,0.6
		c0.8,0.4,1.5,0.9,2.1,1.5c0.5,0.7,0.9,1.4,1.2,2.3c0.3,0.9,0.4,1.9,0.4,3v1.3h-11.3c0,0.8,0.1,1.5,0.3,2.1s0.5,1.2,0.9,1.7
		s0.9,0.9,1.4,1.1c0.6,0.3,1.2,0.4,2,0.4c1.3,0,2.2-0.2,2.8-0.7c0.6-0.5,1-1.1,1.2-2H705.6z M703.3,81.9c0-0.7-0.1-1.4-0.2-2
		c-0.2-0.6-0.4-1.1-0.7-1.5c-0.3-0.4-0.8-0.8-1.3-1s-1.2-0.4-1.9-0.4c-1.4,0-2.4,0.4-3.2,1.2c-0.8,0.8-1.2,2-1.3,3.6H703.3z"/>
	<path fill="#989898" d="M719.7,88.6c-0.6,0.8-1.4,1.5-2.2,2c-0.8,0.5-1.8,0.7-2.9,0.7s-2.1-0.2-2.9-0.6s-1.5-1-2-1.7
		c-0.5-0.7-0.9-1.6-1.2-2.5c-0.3-1-0.4-2-0.4-3.1c0-1.3,0.2-2.4,0.5-3.4c0.3-1,0.8-1.9,1.3-2.6c0.6-0.7,1.3-1.2,2.1-1.6
		c0.8-0.4,1.8-0.6,2.8-0.6c0.8,0,1.6,0.2,2.4,0.5c0.8,0.3,1.6,0.9,2.3,1.8v-7.6h2.6v21h-2.5V88.6z M719.8,82.7
		c0-1.2-0.1-2.2-0.4-2.8s-0.7-1.2-1.3-1.7c-0.4-0.4-0.9-0.6-1.3-0.7c-0.4-0.1-0.9-0.2-1.5-0.2c-0.6,0-1.2,0.1-1.8,0.3
		c-0.5,0.2-1,0.6-1.4,1c-0.4,0.5-0.7,1.1-0.9,1.9c-0.2,0.8-0.3,1.7-0.3,2.8c0,1.1,0.1,2.1,0.4,2.8s0.6,1.4,1,1.8
		c0.4,0.5,0.9,0.8,1.4,1c0.5,0.2,1,0.3,1.5,0.3c0.6,0,1.1-0.1,1.5-0.2c0.5-0.1,0.9-0.4,1.4-0.7c0.6-0.5,1-1.1,1.3-1.8
		c0.3-0.7,0.5-1.6,0.5-2.7V82.7z"/>
	<path fill="#989898" d="M725.6,69.8h2.7v3h-2.7V69.8z M725.7,75.6h2.6v15.2h-2.6V75.6z"/>
	<path fill="#989898" d="M741.1,88.7c-0.5,0.7-1.2,1.2-2.1,1.7c-0.8,0.5-1.9,0.7-3.1,0.7c-0.8,0-1.5-0.1-2.1-0.3
		c-0.6-0.2-1.2-0.5-1.6-0.9c-0.5-0.4-0.8-0.9-1.1-1.4c-0.3-0.6-0.4-1.2-0.4-2c0-1,0.2-1.9,0.7-2.5c0.4-0.6,1-1.2,1.8-1.5
		c0.7-0.4,1.6-0.6,2.5-0.8c0.9-0.2,1.9-0.3,2.9-0.3l2.6-0.1v-0.6c0-1.3-0.3-2.2-0.8-2.8c-0.5-0.6-1.4-0.9-2.7-0.9
		c-1.2,0-2.1,0.2-2.7,0.6c-0.6,0.4-0.9,1-1.1,1.7l-2.3-0.3c0.3-1.4,0.9-2.4,2-3c1-0.6,2.5-1,4.2-1c1.1,0,2,0.1,2.8,0.4
		s1.4,0.6,1.8,1.1s0.8,1.1,1,1.8c0.2,0.7,0.3,1.5,0.3,2.4v9.9h-2.5V88.7z M741.1,83.1l-2.4,0.1c-1,0-1.9,0.1-2.6,0.3
		c-0.7,0.2-1.2,0.4-1.6,0.6c-0.4,0.3-0.7,0.6-0.9,1c-0.2,0.4-0.2,0.8-0.2,1.4c0,0.8,0.2,1.4,0.7,1.8s1.2,0.7,2.3,0.7
		c1.5,0,2.7-0.4,3.5-1.1s1.3-1.8,1.3-3.1V83.1z"/>
</g>
<g>
	<path fill="#010101" d="M25.5,16.8c0,6-3.5,12.5-12.7,12.5C6.1,29.3,0,25.5,0,16.8C0,9.5,4.6,3.9,13.7,4.4
		C23.4,4.9,25.5,12.4,25.5,16.8z M8.2,12.2C7.4,13.5,7,15.1,7,16.7c0,3.7,1.8,7,5.7,7c3.8,0,5.6-3.1,5.6-6.7c0-2.6-0.6-4.6-2-5.8
		c-1.5-1.3-3.1-1.4-4.1-1.3C10.4,10.1,9.2,10.7,8.2,12.2z"/>
	<path fill="#010101" d="M87.6,7.1c0.7-0.7,1.1-1.3,2.4-1.9c1.1-0.5,2.6-0.8,4.3-0.8c1.4,0,3,0.2,4.2,0.9c2.5,1.3,3.1,3.5,3.1,7.1
		v16.2h-7V15.3c0-2.1,0-2.9-0.3-3.5c-0.5-1.3-1.8-1.8-3.1-1.8c-3.7,0-3.7,3-3.7,5.9v12.8h-7V5h7V7.1z"/>
	<path fill="#010101" d="M77.2,22.5c-0.6,1.4-2.7,6.7-11.8,6.7c-7,0-12-4.3-12-12.1c0-5.7,2.8-12.8,12.2-12.8c1.4,0,5.5-0.2,8.5,3.1
		c3.1,3.3,3.3,8,3.4,10.6h-17c0,3,1.6,5.9,5.4,5.9c3.8,0,5.1-2.5,6-4.2L77.2,22.5z M70.2,13.8c-0.1-1-0.3-2.3-1.3-3.4
		c-0.9-0.9-2.2-1.3-3.4-1.3c-1.7,0-2.9,0.8-3.5,1.5c-1,1-1.2,2.1-1.4,3.1H70.2z"/>
	<path fill="#010101" d="M174.6,9.9h4.6V5h-4.6V0h-7v5h-1.1l-3.2,4.9h4.3v11.3c0,2.3,0,4,1,5.4c1.5,2.2,4.1,2.3,6.5,2.3
		c1.3,0,2.2-0.1,3.7-0.4V23l-2.5,0.1c-1.9,0-1.9-1.2-1.8-2.7V9.9z"/>
	<path fill="#010101" d="M105.1,0h7v5h7.2l-3.2,4.9H112v10.5c0,1.5,0,2.7,1.8,2.7l2.5-0.1v5.5c-1.5,0.2-2.4,0.4-3.7,0.4
		c-2.4,0-5-0.1-6.5-2.3c-1-1.4-1-3.1-1-5.4V0z"/>
	<g>
		<path fill="#010101" d="M185.6,9.9h-0.9V5.7h-1.6V5h4v0.7h-1.6V9.9z M192.4,9.9h-0.8l0-3l0-1l-0.2,0.8l-1,3.2h-0.8l-1-3.2
			l-0.3-0.8l0.1,1l0,3h-0.8V5h1.2l1.2,3.9l1.2-3.9h1.2V9.9z"/>
	</g>
	<path fill="#010101" d="M141.2,22.6l-1.3,2.1c-1.2,1.8-3.6,4.6-10.3,4.6c-7,0-11.8-4.3-11.8-12.1c0-5.7,2.8-12.8,12.2-12.8
		c1.4,0,5.5-0.2,8.5,3.1c3.1,3.3,3.3,8,3.4,10.6h-17c0,3,1.4,5.9,5.2,5.9c3.8,0,4.9-2.5,5.8-4.2L141.2,22.6z M134.6,13.8
		c-0.1-1-0.3-2.3-1.3-3.4c-0.9-0.9-2.2-1.3-3.4-1.3c-1.7,0-2.9,0.8-3.5,1.5c-1,1-1.2,2.1-1.4,3.1H134.6z"/>
	<polygon fill="#010101" points="165,28.7 156.3,16.2 163.6,5 155.6,5 152.2,10.3 148.5,5 140.6,5 148.4,16.2 140.3,28.7 
		148.3,28.7 152.5,22.1 157.1,28.7 	"/>
	<path fill="#010101" d="M35.1,7.1c0.7-1,2.8-2.7,6.2-2.7c5.8,0,9.9,4.4,9.9,12.3c0,4.9-1.8,12.5-10.2,12.5c-3,0-5.4-1.7-6-2.7v9.9
		h-7V5h7V7.1z M39.9,9.9c-1.3,0-2.6,0.5-3.6,1.8c-1,1.2-1.5,3.1-1.5,5.2c0,2.8,0.8,4.5,1.7,5.5c0.8,0.9,2,1.4,3.1,1.4
		c3.4,0,4.9-3.6,4.9-7.1c0-2.9-0.9-6-3.7-6.7C40.5,9.9,40.2,9.9,39.9,9.9z"/>
</g>
<g>
	<g>
		<path fill="#010101" d="M0,62.2h4.6l9.2,24.2l9.4-24.2h4.4v28.6h-3.4V68.3l-9,22.5h-3L3.4,68.3v22.5H0V62.2z"/>
		<path fill="#010101" d="M45.8,88c-0.7,0.9-1.7,1.7-2.8,2.3c-1.1,0.7-2.6,1-4.3,1c-1,0-2-0.1-2.9-0.4c-0.9-0.3-1.6-0.6-2.2-1.2
			c-0.6-0.5-1.1-1.2-1.5-1.9c-0.3-0.8-0.5-1.7-0.5-2.7c0-1.4,0.3-2.6,0.9-3.4c0.6-0.9,1.4-1.6,2.4-2.1c1-0.5,2.1-0.9,3.4-1.1
			c1.3-0.2,2.5-0.3,3.9-0.4l3.6-0.1v-0.8c0-1.8-0.4-3-1.1-3.8c-0.7-0.8-2-1.2-3.6-1.2c-1.7,0-2.9,0.3-3.6,0.8
			c-0.8,0.5-1.3,1.3-1.5,2.3l-3.2-0.4c0.4-1.9,1.3-3.3,2.7-4.1c1.4-0.9,3.3-1.3,5.8-1.3c1.5,0,2.8,0.2,3.8,0.5
			c1,0.4,1.9,0.9,2.5,1.5c0.6,0.7,1.1,1.5,1.4,2.5c0.3,1,0.4,2.1,0.4,3.3v13.5h-3.4L45.8,88L45.8,88z M45.7,80.4l-3.3,0.1
			c-1.4,0.1-2.6,0.2-3.5,0.4c-0.9,0.2-1.7,0.5-2.2,0.9c-0.5,0.4-0.9,0.8-1.2,1.3c-0.2,0.5-0.3,1.1-0.3,1.8c0,1,0.3,1.9,0.9,2.5
			c0.6,0.6,1.7,0.9,3.1,0.9c2.1,0,3.7-0.5,4.8-1.5c1.1-1,1.7-2.4,1.7-4.2L45.7,80.4L45.7,80.4z"/>
		<path fill="#010101" d="M57.3,92.7c0.3,1.3,0.9,2.1,1.7,2.7c0.8,0.5,2.2,0.8,3.9,0.8c2.2,0,3.7-0.6,4.5-1.8c0.8-1.2,1.3-3,1.3-5.3
			v-2.2c-0.8,1.1-1.8,2-2.9,2.6s-2.5,0.9-4,0.9c-1.5,0-2.8-0.3-3.9-0.8c-1.1-0.5-2-1.3-2.7-2.2c-0.7-0.9-1.3-2-1.6-3.3
			c-0.4-1.3-0.5-2.6-0.5-4c0-1.6,0.2-3,0.6-4.3c0.4-1.3,1-2.4,1.8-3.3c0.8-0.9,1.8-1.6,2.9-2.1c1.1-0.5,2.4-0.8,3.8-0.8
			c1.1,0,2.3,0.2,3.4,0.7c1.1,0.5,2.2,1.3,3.1,2.6v-2.6h3.4v17.3c0,1.8-0.1,3.4-0.4,4.8c-0.3,1.4-0.7,2.6-1.4,3.6
			c-0.7,1-1.6,1.8-2.8,2.3C66.4,98.7,64.9,99,63,99c-2.7,0-4.9-0.5-6.4-1.5c-1.5-1-2.5-2.6-2.7-4.8L57.3,92.7L57.3,92.7z M68.8,79.7
			c0-1.4-0.2-2.5-0.5-3.4C68,75.3,67.6,74.6,67,74c-0.6-0.6-1.2-1-1.9-1.3c-0.7-0.3-1.5-0.4-2.3-0.4c-0.9,0-1.6,0.1-2.4,0.4
			c-0.7,0.3-1.4,0.7-1.9,1.3c-0.5,0.6-1,1.4-1.3,2.4c-0.3,1-0.5,2.1-0.5,3.5c0,1.4,0.2,2.6,0.5,3.5c0.3,1,0.8,1.7,1.3,2.3
			c0.5,0.6,1.2,1,1.9,1.3c0.7,0.3,1.4,0.4,2.1,0.4c0.9,0,1.7-0.1,2.5-0.4c0.8-0.3,1.4-0.7,2-1.3c0.6-0.6,1-1.3,1.3-2.2
			c0.3-0.9,0.5-1.9,0.5-3.1L68.8,79.7L68.8,79.7z"/>
		<path fill="#010101" d="M94.8,85c-0.3,2-1.2,3.6-2.7,4.7c-1.4,1.1-3.5,1.7-6.1,1.7c-3.2,0-5.6-1-7.2-2.9c-1.7-1.9-2.5-4.6-2.5-8
			c0-1.8,0.2-3.4,0.7-4.8c0.5-1.4,1.2-2.5,2-3.5c0.9-0.9,1.9-1.6,3.1-2.1c1.2-0.5,2.5-0.7,3.9-0.7c1.6,0,3,0.3,4.1,0.8
			c1.1,0.5,2.1,1.2,2.8,2.1c0.7,0.9,1.3,2,1.6,3.2c0.4,1.2,0.5,2.6,0.5,4v1.8H79.8c0,1,0.1,2,0.4,2.9c0.3,0.9,0.7,1.7,1.2,2.3
			c0.5,0.7,1.2,1.2,1.9,1.5c0.8,0.4,1.7,0.6,2.7,0.6c1.7,0,3-0.3,3.8-1c0.8-0.7,1.3-1.5,1.6-2.7H94.8z M91.6,78.7
			c0-1-0.1-1.9-0.3-2.7c-0.2-0.8-0.5-1.5-1-2.1c-0.5-0.6-1-1-1.8-1.3c-0.7-0.3-1.6-0.5-2.6-0.5c-1.8,0-3.3,0.6-4.3,1.7
			s-1.6,2.7-1.8,4.9H91.6z"/>
		<path fill="#010101" d="M99.2,62.2h3.5v28.6h-3.5V62.2z"/>
		<path fill="#010101" d="M107.6,62.2h3.5v28.6h-3.5V62.2z"/>
		<path fill="#010101" d="M128.9,88c-0.7,0.9-1.7,1.7-2.8,2.3c-1.1,0.7-2.6,1-4.3,1c-1,0-2-0.1-2.9-0.4c-0.9-0.3-1.6-0.6-2.2-1.2
			c-0.6-0.5-1.1-1.2-1.5-1.9c-0.3-0.8-0.5-1.7-0.5-2.7c0-1.4,0.3-2.6,0.9-3.4c0.6-0.9,1.4-1.6,2.4-2.1s2.1-0.9,3.4-1.1
			c1.3-0.2,2.5-0.3,3.9-0.4l3.6-0.1v-0.8c0-1.8-0.4-3-1.1-3.8s-2-1.2-3.6-1.2c-1.7,0-2.9,0.3-3.6,0.8c-0.8,0.5-1.3,1.3-1.5,2.3
			l-3.2-0.4c0.4-1.9,1.3-3.3,2.7-4.1c1.4-0.9,3.3-1.3,5.8-1.3c1.5,0,2.8,0.2,3.8,0.5c1,0.4,1.9,0.9,2.5,1.5c0.6,0.7,1.1,1.5,1.4,2.5
			c0.3,1,0.4,2.1,0.4,3.3v13.5H129L128.9,88L128.9,88z M128.9,80.4l-3.3,0.1c-1.4,0.1-2.6,0.2-3.5,0.4c-0.9,0.2-1.7,0.5-2.2,0.9
			c-0.5,0.4-0.9,0.8-1.2,1.3c-0.2,0.5-0.3,1.1-0.3,1.8c0,1,0.3,1.9,0.9,2.5c0.6,0.6,1.7,0.9,3.1,0.9c2.1,0,3.7-0.5,4.8-1.5
			c1.1-1,1.7-2.4,1.7-4.2L128.9,80.4L128.9,80.4z"/>
		<path fill="#010101" d="M137.1,70.1h3.4v3.2c1-1.4,2.1-2.3,3.4-2.9s2.5-0.9,3.9-0.9c2.3,0,4.1,0.6,5.2,1.9
			c1.1,1.3,1.7,3.2,1.7,5.6v13.8h-3.5V77.7c0-1.9-0.3-3.3-1-4.1c-0.7-0.8-1.8-1.2-3.2-1.2c-0.8,0-1.5,0.1-2.3,0.4
			c-0.8,0.3-1.4,0.7-2.1,1.3c-0.7,0.6-1.2,1.2-1.5,1.9c-0.3,0.7-0.5,1.5-0.5,2.5v12.2h-3.5L137.1,70.1L137.1,70.1z"/>
	</g>
	<g>
		<path fill="#010101" d="M162.8,69.7h-1v-5h-1.9v-0.9h4.8v0.9h-1.9L162.8,69.7L162.8,69.7z M170.9,69.7h-1l0-3.6l0.1-1.2l-0.3,1
			l-1.2,3.9h-0.9l-1.2-3.9l-0.3-1l0.1,1.2l0,3.6h-1v-5.9h1.4l1.5,4.7l1.4-4.7h1.4L170.9,69.7L170.9,69.7z"/>
	</g>
</g>
</svg>
