<?xml version="1.0" encoding="utf-8"?>
<!-- Generator: Adobe Illustrator 18.1.1, SVG Export Plug-In . SVG Version: 6.00 Build 0)  -->
<!DOCTYPE svg PUBLIC "-//W3C//DTD SVG 1.1//EN" "http://www.w3.org/Graphics/SVG/1.1/DTD/svg11.dtd" [
	<!ENTITY ns_extend "http://ns.adobe.com/Extensibility/1.0/">
	<!ENTITY ns_ai "http://ns.adobe.com/AdobeIllustrator/10.0/">
	<!ENTITY ns_graphs "http://ns.adobe.com/Graphs/1.0/">
	<!ENTITY ns_vars "http://ns.adobe.com/Variables/1.0/">
	<!ENTITY ns_imrep "http://ns.adobe.com/ImageReplacement/1.0/">
	<!ENTITY ns_sfw "http://ns.adobe.com/SaveForWeb/1.0/">
	<!ENTITY ns_custom "http://ns.adobe.com/GenericCustomNamespace/1.0/">
	<!ENTITY ns_adobe_xpath "http://ns.adobe.com/XPath/1.0/">
]>
<svg version="1.1" id="Calque_1" xmlns:x="&ns_extend;" xmlns:i="&ns_ai;" xmlns:graph="&ns_graphs;"
	 xmlns="http://www.w3.org/2000/svg" xmlns:xlink="http://www.w3.org/1999/xlink" x="0px" y="0px" viewBox="0 0 536.111 25.432"
	 enable-background="new 0 0 536.111 25.432" xml:space="preserve"   preserveAspectRatio="xMinYMin">
<metadata>
	<sfw  xmlns="&ns_sfw;">
		<slices></slices>
		<sliceSourceBounds  width="536.111" height="25.432" bottomLeftOrigin="true" y="-429.588" x="24.709"></sliceSourceBounds>
	</sfw>
</metadata>
<g>
	<g>
		<path d="M145.416,3.956h2.544l5.132,13.477l5.222-13.477h2.454v15.932h-1.897V7.325l-4.999,12.563h-1.673L147.29,7.369v12.519
			h-1.874V3.956z"/>
		<path d="M170.957,18.304c-0.417,0.505-0.945,0.94-1.584,1.305c-0.64,0.365-1.436,0.547-2.388,0.547
			c-0.58,0-1.112-0.07-1.595-0.212c-0.484-0.141-0.901-0.357-1.249-0.647c-0.35-0.29-0.621-0.65-0.814-1.082
			c-0.194-0.432-0.29-0.937-0.29-1.517c0-0.789,0.167-1.428,0.502-1.919c0.335-0.491,0.781-0.878,1.338-1.161
			c0.558-0.283,1.186-0.483,1.886-0.602c0.699-0.119,1.421-0.193,2.164-0.223l1.986-0.067v-0.447c0-0.982-0.208-1.688-0.625-2.119
			c-0.417-0.432-1.093-0.647-2.03-0.647c-0.923,0-1.6,0.152-2.031,0.457c-0.432,0.305-0.714,0.725-0.848,1.26l-1.762-0.201
			c0.208-1.056,0.706-1.826,1.495-2.309c0.789-0.484,1.859-0.726,3.213-0.726c0.834,0,1.536,0.101,2.109,0.302
			c0.573,0.201,1.038,0.487,1.395,0.859c0.356,0.372,0.613,0.834,0.77,1.384c0.156,0.55,0.234,1.167,0.234,1.852v7.498h-1.874
			V18.304z M170.913,14.109l-1.852,0.066c-0.789,0.031-1.443,0.104-1.964,0.224c-0.521,0.119-0.934,0.278-1.239,0.48
			c-0.305,0.201-0.52,0.45-0.647,0.747c-0.126,0.297-0.189,0.64-0.189,1.027c0,0.58,0.174,1.045,0.524,1.394
			c0.35,0.35,0.926,0.524,1.73,0.524c1.145,0,2.037-0.283,2.677-0.848c0.64-0.565,0.959-1.338,0.959-2.32V14.109z"/>
		<path d="M177.341,20.958c0.164,0.699,0.48,1.197,0.949,1.496c0.468,0.297,1.201,0.446,2.198,0.446c1.22,0,2.064-0.338,2.532-1.015
			c0.469-0.677,0.703-1.662,0.703-2.956v-1.228c-0.447,0.626-0.986,1.109-1.618,1.451c-0.632,0.342-1.372,0.513-2.221,0.513
			c-0.833,0-1.558-0.152-2.175-0.457c-0.618-0.304-1.127-0.721-1.529-1.249c-0.402-0.528-0.703-1.141-0.904-1.841
			c-0.201-0.698-0.301-1.45-0.301-2.254c0-0.877,0.118-1.677,0.357-2.399c0.238-0.721,0.58-1.339,1.026-1.852
			c0.447-0.513,0.986-0.911,1.618-1.194c0.632-0.283,1.342-0.424,2.131-0.424c0.64,0,1.275,0.131,1.907,0.391
			c0.632,0.26,1.209,0.74,1.73,1.439V8.351h1.919v9.663c0,0.997-0.071,1.892-0.212,2.689c-0.142,0.795-0.402,1.472-0.781,2.03
			c-0.379,0.558-0.903,0.986-1.573,1.283c-0.669,0.297-1.533,0.447-2.588,0.447c-1.518,0-2.708-0.272-3.57-0.814
			c-0.863-0.544-1.369-1.439-1.518-2.689H177.341z M183.768,13.685c0-0.759-0.089-1.394-0.268-1.908
			c-0.178-0.513-0.423-0.933-0.736-1.26s-0.674-0.562-1.083-0.703c-0.409-0.141-0.836-0.212-1.283-0.212
			c-0.476,0-0.919,0.079-1.327,0.234c-0.41,0.157-0.766,0.406-1.071,0.747c-0.305,0.343-0.544,0.781-0.714,1.317
			c-0.172,0.536-0.257,1.183-0.257,1.941c0,0.774,0.093,1.428,0.279,1.964c0.186,0.536,0.428,0.968,0.725,1.294
			c0.297,0.327,0.644,0.566,1.038,0.714c0.394,0.149,0.792,0.223,1.193,0.223c0.505,0,0.971-0.081,1.395-0.245
			c0.423-0.163,0.792-0.408,1.104-0.737c0.312-0.326,0.558-0.739,0.736-1.238c0.179-0.499,0.268-1.082,0.268-1.752V13.685z"/>
		<path d="M198.259,16.652c-0.194,1.115-0.689,1.993-1.484,2.633c-0.796,0.639-1.938,0.959-3.425,0.959
			c-1.756,0-3.102-0.532-4.039-1.596c-0.937-1.063-1.405-2.547-1.405-4.452c0-0.996,0.133-1.882,0.401-2.655
			c0.268-0.773,0.644-1.42,1.127-1.941c0.484-0.52,1.061-0.918,1.73-1.193c0.669-0.275,1.398-0.413,2.187-0.413
			c0.892,0,1.659,0.142,2.298,0.424c0.639,0.283,1.163,0.674,1.573,1.172c0.409,0.499,0.714,1.09,0.916,1.774
			c0.201,0.684,0.301,1.436,0.301,2.254v0.982h-8.568c0,0.58,0.078,1.119,0.234,1.618c0.157,0.498,0.379,0.93,0.669,1.294
			c0.29,0.365,0.65,0.65,1.082,0.858c0.432,0.209,0.93,0.312,1.496,0.312c0.967,0,1.674-0.181,2.119-0.546
			c0.447-0.365,0.751-0.859,0.915-1.484H198.259z M196.496,13.149c0-0.55-0.06-1.049-0.178-1.496
			c-0.119-0.446-0.306-0.829-0.558-1.149c-0.253-0.32-0.58-0.569-0.982-0.747c-0.401-0.178-0.885-0.268-1.45-0.268
			c-1.027,0-1.826,0.312-2.399,0.937c-0.573,0.625-0.911,1.532-1.016,2.723H196.496z"/>
		<path d="M200.728,3.956h1.941v15.932h-1.941V3.956z"/>
		<path d="M205.389,3.956h1.941v15.932h-1.941V3.956z"/>
		<path d="M217.292,18.304c-0.417,0.505-0.945,0.94-1.584,1.305c-0.64,0.365-1.436,0.547-2.388,0.547
			c-0.58,0-1.112-0.07-1.595-0.212c-0.484-0.141-0.901-0.357-1.249-0.647c-0.35-0.29-0.621-0.65-0.814-1.082
			c-0.194-0.432-0.29-0.937-0.29-1.517c0-0.789,0.167-1.428,0.502-1.919c0.335-0.491,0.78-0.878,1.338-1.161
			c0.558-0.283,1.186-0.483,1.886-0.602c0.699-0.119,1.421-0.193,2.164-0.223l1.986-0.067v-0.447c0-0.982-0.208-1.688-0.625-2.119
			s-1.093-0.647-2.03-0.647c-0.923,0-1.6,0.152-2.031,0.457c-0.432,0.305-0.714,0.725-0.848,1.26l-1.762-0.201
			c0.208-1.056,0.706-1.826,1.495-2.309c0.789-0.484,1.859-0.726,3.213-0.726c0.834,0,1.536,0.101,2.109,0.302
			c0.573,0.201,1.038,0.487,1.395,0.859c0.356,0.372,0.613,0.834,0.77,1.384c0.156,0.55,0.234,1.167,0.234,1.852v7.498h-1.874
			V18.304z M217.247,14.109l-1.852,0.066c-0.789,0.031-1.443,0.104-1.964,0.224c-0.521,0.119-0.934,0.278-1.239,0.48
			c-0.305,0.201-0.52,0.45-0.647,0.747c-0.126,0.297-0.189,0.64-0.189,1.027c0,0.58,0.174,1.045,0.524,1.394
			c0.35,0.35,0.926,0.524,1.73,0.524c1.145,0,2.037-0.283,2.677-0.848c0.64-0.565,0.959-1.338,0.959-2.32V14.109z"/>
		<path d="M221.819,8.351h1.919v1.763c0.566-0.759,1.191-1.302,1.875-1.629c0.684-0.327,1.405-0.491,2.164-0.491
			c1.309,0,2.279,0.357,2.912,1.071c0.631,0.714,0.948,1.763,0.948,3.146v7.677h-1.941v-7.297c0-1.07-0.193-1.825-0.58-2.264
			c-0.387-0.439-0.982-0.659-1.786-0.659c-0.432,0-0.858,0.075-1.283,0.224c-0.424,0.148-0.807,0.387-1.149,0.713
			c-0.372,0.328-0.655,0.674-0.848,1.038c-0.194,0.365-0.291,0.837-0.291,1.417v6.828h-1.941V8.351z"/>
	</g>
	<path d="M17.059,12.146c0,4.014-2.311,8.362-8.514,8.362C4.075,20.509,0,18.015,0,12.146c0-4.865,3.071-8.605,9.153-8.271
		C15.63,4.241,17.059,9.258,17.059,12.146z M5.504,9.092c-0.578,0.89-0.791,1.958-0.791,3.026c0,2.462,1.216,4.692,3.831,4.692
		c2.524,0,3.771-2.052,3.771-4.485c0-1.721-0.426-3.056-1.308-3.886c-0.973-0.89-2.068-0.92-2.737-0.86
		C6.933,7.668,6.142,8.113,5.504,9.092z"/>
	<path d="M58.565,5.67c0.456-0.487,0.76-0.851,1.581-1.247c0.73-0.304,1.764-0.547,2.889-0.547c0.943,0,2.007,0.152,2.828,0.608
		c1.672,0.882,2.098,2.311,2.098,4.774v10.856h-4.652v-8.94c0-1.429-0.03-1.946-0.213-2.372c-0.365-0.851-1.186-1.216-2.098-1.216
		c-2.463,0-2.463,1.976-2.463,3.953v8.575h-4.683V4.271h4.713V5.67z"/>
	<path d="M51.628,16.013c-0.429,0.904-1.81,4.495-7.906,4.495c-4.713,0-8.028-2.884-8.028-8.083c0-3.831,1.885-8.549,8.149-8.549
		c0.943,0,3.679-0.117,5.717,2.073c2.068,2.22,2.189,5.321,2.25,7.115H40.468c-0.03,1.977,1.095,3.953,3.619,3.953
		c2.554,0,3.436-1.672,4.014-2.798L51.628,16.013z M46.975,10.145c-0.091-0.669-0.213-1.551-0.882-2.25
		c-0.578-0.578-1.46-0.882-2.281-0.882c-1.125,0-1.916,0.547-2.372,1.034c-0.639,0.699-0.791,1.429-0.943,2.098H46.975z"/>
	<path d="M116.739,7.56h3.102V4.271h-3.071V0.935h-4.652v3.336h-0.738l-2.13,3.289h2.868v7.536c0,1.52,0.03,2.645,0.669,3.588
		c1.003,1.46,2.767,1.551,4.379,1.551c0.851,0,1.46-0.091,2.463-0.243v-3.649l-1.672,0.061c-1.247,0-1.247-0.821-1.216-1.794V7.56z"
		/>
	<path d="M70.291,0.935h4.652v3.336h4.835l-2.13,3.289h-2.736v7.05c-0.03,0.973-0.03,1.794,1.216,1.794l1.672-0.061v3.649
		c-1.003,0.152-1.612,0.243-2.463,0.243c-1.612,0-3.375-0.091-4.379-1.551c-0.639-0.943-0.669-2.068-0.669-3.588V0.935z"/>
	<g>
		<path d="M124.15,7.56h-0.575V4.756h-1.06V4.271h2.675v0.485h-1.04V7.56z M128.659,7.56h-0.565l0.02-2.031l0.03-0.674l-0.159,0.555
			l-0.674,2.15h-0.515l-0.664-2.15l-0.168-0.545l0.04,0.664l0.02,2.031h-0.555V4.271h0.783l0.822,2.596l0.803-2.596h0.783V7.56z"/>
	</g>
	<g>
		<path d="M236.143,9.041h-0.575V6.237h-1.06V5.752h2.675v0.485h-1.04V9.041z M240.652,9.041h-0.565l0.02-2.031l0.03-0.674
			l-0.159,0.555l-0.674,2.15h-0.515l-0.664-2.15l-0.168-0.545l0.04,0.664l0.02,2.031h-0.555V5.752h0.783l0.822,2.596l0.803-2.596
			h0.783V9.041z"/>
	</g>
	<path d="M94.437,16.028l-0.891,1.376c-0.834,1.224-2.403,3.105-6.898,3.105c-4.713,0-7.88-2.884-7.88-8.083
		c0-3.831,1.885-8.549,8.149-8.549c0.943,0,3.679-0.117,5.717,2.073c2.068,2.22,2.189,5.321,2.25,7.115H83.542
		c-0.03,1.977,0.946,3.953,3.47,3.953c2.554,0,3.288-1.672,3.866-2.798L94.437,16.028z M90.05,10.145
		c-0.091-0.669-0.213-1.551-0.882-2.25c-0.578-0.578-1.46-0.882-2.281-0.882c-1.125,0-1.916,0.547-2.372,1.034
		c-0.639,0.699-0.791,1.429-0.943,2.098H90.05z"/>
	<polygon points="110.377,20.115 104.56,11.776 109.411,4.271 104.086,4.271 101.796,7.814 99.325,4.271 94,4.271 99.235,11.776 
		93.844,20.115 99.169,20.115 101.998,15.738 105.052,20.115 	"/>
	<path d="M23.494,5.67c0.448-0.68,1.884-1.794,4.165-1.794c3.892,0,6.63,2.95,6.63,8.241c0,3.254-1.185,8.393-6.826,8.393
		c-2.028,0-3.602-1.128-4-1.794v6.645H18.78V4.271h4.713V5.67z M26.656,7.531c-0.851,0-1.733,0.34-2.402,1.189
		c-0.669,0.821-0.973,2.094-0.973,3.481c0,1.868,0.548,3,1.125,3.651c0.54,0.609,1.338,0.959,2.098,0.959
		c2.281,0,3.284-2.402,3.284-4.722c0-1.953-0.578-4.019-2.493-4.471C27.082,7.56,26.869,7.531,26.656,7.531z"/>
	<polygon points="135.614,0 135.614,12.695 135.614,12.738 135.614,25.432 136.462,25.432 136.462,12.738 136.462,12.695 136.462,0 
			"/>
</g>
<g>
	<path fill="#999999" d="M244.051,9.09h1.398v10.853h-1.398V9.09z"/>
	<path fill="#999999" d="M247.365,12.084h1.307v1.201c0.385-0.517,0.811-0.887,1.277-1.11c0.466-0.223,0.958-0.334,1.475-0.334
		c0.892,0,1.553,0.243,1.983,0.73c0.431,0.486,0.646,1.201,0.646,2.143v5.229h-1.322v-4.971c0-0.729-0.132-1.244-0.395-1.543
		c-0.264-0.298-0.669-0.448-1.216-0.448c-0.294,0-0.585,0.051-0.874,0.152c-0.289,0.102-0.55,0.264-0.783,0.487
		c-0.253,0.223-0.446,0.458-0.578,0.707c-0.132,0.249-0.198,0.57-0.198,0.965v4.651h-1.322V12.084z"/>
	<path fill="#999999" d="M256.197,13.133h-1.231v-1.049h1.231V11.4c0-0.425,0.063-0.79,0.19-1.094
		c0.126-0.304,0.299-0.555,0.517-0.752s0.471-0.344,0.76-0.441c0.289-0.096,0.595-0.144,0.919-0.144
		c0.233,0,0.456,0.013,0.669,0.038c0.212,0.025,0.435,0.074,0.669,0.145l-0.213,1.034c-0.162-0.051-0.317-0.083-0.464-0.099
		c-0.147-0.015-0.292-0.023-0.434-0.023c-0.354,0-0.659,0.094-0.912,0.281s-0.38,0.53-0.38,1.026v0.714h1.991v1.049h-1.991v6.81
		h-1.322V13.133z"/>
	<path fill="#999999" d="M263.721,20.186c-0.598,0-1.13-0.097-1.596-0.289c-0.467-0.192-0.861-0.466-1.186-0.82
		c-0.325-0.355-0.573-0.791-0.745-1.308s-0.258-1.094-0.258-1.733c0-0.638,0.09-1.216,0.272-1.733
		c0.183-0.517,0.441-0.958,0.775-1.322c0.335-0.365,0.737-0.646,1.209-0.844c0.471-0.197,0.995-0.296,1.573-0.296
		c0.587,0,1.114,0.097,1.581,0.289c0.466,0.192,0.863,0.469,1.192,0.828c0.33,0.36,0.58,0.793,0.753,1.3
		c0.172,0.507,0.259,1.079,0.259,1.718c0,0.648-0.089,1.231-0.267,1.748c-0.178,0.516-0.431,0.958-0.76,1.322
		c-0.329,0.365-0.732,0.646-1.209,0.844C264.841,20.087,264.309,20.186,263.721,20.186z M263.737,19.091
		c0.425,0,0.79-0.076,1.094-0.228c0.305-0.152,0.555-0.365,0.753-0.639c0.197-0.273,0.342-0.6,0.433-0.98
		c0.092-0.38,0.138-0.798,0.138-1.254c0-0.446-0.046-0.856-0.138-1.231c-0.091-0.375-0.235-0.696-0.433-0.965
		c-0.198-0.269-0.448-0.479-0.753-0.631c-0.304-0.152-0.669-0.228-1.094-0.228c-0.426,0-0.788,0.076-1.087,0.228
		c-0.3,0.152-0.548,0.362-0.745,0.631s-0.342,0.59-0.434,0.965c-0.091,0.375-0.137,0.791-0.137,1.247
		c0,0.456,0.046,0.872,0.137,1.247c0.092,0.375,0.233,0.699,0.426,0.973s0.441,0.486,0.745,0.639
		C262.946,19.015,263.311,19.091,263.737,19.091z"/>
	<path fill="#999999" d="M269.208,9.09h6.733v1.231h-5.335v3.557h5.001v1.262h-5.001v4.803h-1.398V9.09z"/>
	<path fill="#999999" d="M277.021,12.084h1.322v4.956c0,0.729,0.119,1.246,0.357,1.55c0.238,0.305,0.626,0.456,1.163,0.456
		c0.588,0,1.119-0.213,1.596-0.638c0.254-0.223,0.446-0.459,0.578-0.707s0.197-0.57,0.197-0.965v-4.651h1.322v7.859h-1.307v-1.216
		c-0.386,0.507-0.801,0.876-1.247,1.109c-0.445,0.232-0.927,0.35-1.443,0.35c-0.893,0-1.538-0.241-1.938-0.723
		c-0.4-0.48-0.601-1.203-0.601-2.166V12.084z"/>
	<path fill="#999999" d="M286.142,17.647c0.091,0.547,0.321,0.93,0.691,1.148c0.369,0.218,0.874,0.326,1.513,0.326
		c0.668,0,1.142-0.114,1.421-0.342c0.278-0.228,0.418-0.529,0.418-0.904c0-0.152-0.018-0.296-0.054-0.433
		c-0.035-0.137-0.104-0.258-0.205-0.365s-0.243-0.2-0.426-0.281c-0.182-0.081-0.42-0.147-0.714-0.198l-1.003-0.152
		c-0.446-0.071-0.836-0.162-1.171-0.273c-0.334-0.112-0.618-0.256-0.852-0.434c-0.232-0.177-0.407-0.395-0.524-0.653
		c-0.116-0.259-0.175-0.57-0.175-0.935s0.079-0.689,0.236-0.973c0.156-0.284,0.374-0.524,0.653-0.722
		c0.278-0.198,0.608-0.35,0.988-0.456s0.793-0.16,1.238-0.16c0.567,0,1.042,0.056,1.422,0.167s0.691,0.264,0.935,0.456
		s0.431,0.42,0.562,0.684c0.132,0.263,0.232,0.542,0.304,0.836l-1.2,0.197c-0.071-0.212-0.152-0.4-0.244-0.562
		c-0.091-0.162-0.212-0.296-0.364-0.403s-0.337-0.188-0.555-0.243c-0.219-0.056-0.489-0.084-0.813-0.084
		c-0.365,0-0.669,0.033-0.912,0.099s-0.438,0.154-0.585,0.266c-0.147,0.112-0.251,0.236-0.312,0.373
		c-0.062,0.137-0.092,0.281-0.092,0.433c0,0.163,0.021,0.307,0.062,0.434c0.04,0.126,0.116,0.238,0.228,0.334
		c0.111,0.097,0.264,0.18,0.456,0.251c0.192,0.071,0.44,0.132,0.745,0.183l1.14,0.182c0.922,0.152,1.583,0.416,1.983,0.791
		c0.4,0.375,0.601,0.922,0.601,1.642c0,0.334-0.065,0.641-0.197,0.92c-0.132,0.278-0.329,0.521-0.593,0.729s-0.593,0.37-0.988,0.486
		s-0.856,0.175-1.383,0.175c-0.477,0-0.92-0.046-1.33-0.137c-0.411-0.092-0.773-0.236-1.087-0.434
		c-0.314-0.197-0.568-0.458-0.761-0.783c-0.192-0.324-0.304-0.719-0.334-1.185H286.142z"/>
	<path fill="#999999" d="M292.906,9.09h1.414v1.535h-1.414V9.09z M292.952,12.084h1.322v7.859h-1.322V12.084z"/>
	<path fill="#999999" d="M299.563,20.186c-0.598,0-1.13-0.097-1.596-0.289c-0.467-0.192-0.861-0.466-1.186-0.82
		c-0.325-0.355-0.573-0.791-0.745-1.308c-0.173-0.517-0.259-1.094-0.259-1.733c0-0.638,0.092-1.216,0.273-1.733
		c0.183-0.517,0.441-0.958,0.775-1.322c0.335-0.365,0.737-0.646,1.209-0.844c0.471-0.197,0.995-0.296,1.573-0.296
		c0.587,0,1.114,0.097,1.581,0.289c0.466,0.192,0.863,0.469,1.192,0.828c0.33,0.36,0.58,0.793,0.753,1.3
		c0.172,0.507,0.259,1.079,0.259,1.718c0,0.648-0.089,1.231-0.267,1.748c-0.178,0.516-0.431,0.958-0.76,1.322
		c-0.329,0.365-0.732,0.646-1.209,0.844C300.683,20.087,300.151,20.186,299.563,20.186z M299.579,19.091
		c0.425,0,0.79-0.076,1.094-0.228c0.305-0.152,0.555-0.365,0.753-0.639c0.197-0.273,0.342-0.6,0.433-0.98
		c0.092-0.38,0.138-0.798,0.138-1.254c0-0.446-0.046-0.856-0.138-1.231c-0.091-0.375-0.235-0.696-0.433-0.965
		c-0.198-0.269-0.448-0.479-0.753-0.631c-0.304-0.152-0.669-0.228-1.094-0.228c-0.426,0-0.788,0.076-1.087,0.228
		c-0.3,0.152-0.548,0.362-0.745,0.631s-0.342,0.59-0.434,0.965c-0.091,0.375-0.137,0.791-0.137,1.247
		c0,0.456,0.046,0.872,0.137,1.247c0.092,0.375,0.233,0.699,0.426,0.973s0.441,0.486,0.745,0.639
		C298.788,19.015,299.153,19.091,299.579,19.091z"/>
	<path fill="#999999" d="M304.869,12.084h1.308v1.201c0.385-0.517,0.811-0.887,1.276-1.11c0.466-0.223,0.958-0.334,1.475-0.334
		c0.892,0,1.553,0.243,1.983,0.73c0.431,0.486,0.646,1.201,0.646,2.143v5.229h-1.323v-4.971c0-0.729-0.132-1.244-0.395-1.543
		c-0.264-0.298-0.669-0.448-1.216-0.448c-0.295,0-0.586,0.051-0.874,0.152c-0.289,0.102-0.551,0.264-0.783,0.487
		c-0.254,0.223-0.446,0.458-0.578,0.707c-0.132,0.249-0.197,0.57-0.197,0.965v4.651h-1.322V12.084z"/>
	<path fill="#999999" d="M325.388,16.371c-0.061,0.547-0.197,1.057-0.41,1.527c-0.213,0.472-0.502,0.88-0.866,1.224
		c-0.365,0.345-0.809,0.613-1.33,0.806c-0.522,0.192-1.128,0.289-1.816,0.289c-0.75,0-1.424-0.127-2.021-0.38
		c-0.599-0.253-1.104-0.623-1.521-1.109c-0.415-0.487-0.737-1.082-0.965-1.786c-0.229-0.705-0.342-1.507-0.342-2.41
		c0-0.912,0.121-1.723,0.364-2.432c0.243-0.709,0.583-1.308,1.019-1.794s0.95-0.856,1.543-1.109s1.233-0.38,1.923-0.38
		c0.669,0,1.246,0.086,1.732,0.258c0.486,0.173,0.899,0.416,1.239,0.73c0.339,0.314,0.613,0.689,0.82,1.125
		c0.208,0.436,0.367,0.917,0.479,1.444l-1.368,0.228c-0.092-0.396-0.211-0.752-0.357-1.072s-0.334-0.59-0.562-0.813
		c-0.228-0.223-0.501-0.393-0.82-0.509s-0.707-0.175-1.163-0.175c-0.537,0-1.017,0.109-1.437,0.327
		c-0.421,0.218-0.775,0.522-1.064,0.912c-0.288,0.39-0.509,0.861-0.661,1.414c-0.151,0.552-0.228,1.163-0.228,1.832
		c0,0.669,0.076,1.28,0.228,1.832c0.152,0.552,0.373,1.026,0.661,1.421c0.289,0.396,0.644,0.699,1.064,0.912
		c0.42,0.213,0.904,0.319,1.451,0.319c0.497,0,0.92-0.063,1.27-0.19s0.639-0.307,0.866-0.539c0.229-0.233,0.408-0.512,0.54-0.836
		c0.132-0.324,0.228-0.679,0.289-1.064H325.388z"/>
	<path fill="#999999" d="M326.802,12.084h1.308V13.3c0.293-0.436,0.638-0.77,1.033-1.003c0.396-0.233,0.815-0.35,1.262-0.35
		c0.273,0,0.507,0.021,0.699,0.061l-0.167,1.231c-0.102-0.02-0.203-0.038-0.305-0.053c-0.101-0.015-0.213-0.022-0.334-0.022
		c-0.243,0-0.492,0.043-0.745,0.129c-0.253,0.086-0.491,0.231-0.714,0.434c-0.224,0.192-0.398,0.416-0.524,0.668
		c-0.127,0.253-0.19,0.547-0.19,0.882v4.667h-1.322V12.084z"/>
	<path fill="#999999" d="M336.653,18.864c-0.284,0.345-0.644,0.641-1.079,0.889s-0.979,0.373-1.627,0.373
		c-0.395,0-0.758-0.049-1.087-0.145c-0.329-0.097-0.613-0.243-0.851-0.441c-0.238-0.197-0.424-0.443-0.555-0.737
		c-0.132-0.294-0.198-0.638-0.198-1.033c0-0.537,0.114-0.973,0.342-1.307c0.229-0.334,0.532-0.598,0.912-0.791
		c0.381-0.192,0.809-0.329,1.285-0.41c0.476-0.081,0.967-0.132,1.474-0.152l1.354-0.045v-0.304c0-0.668-0.143-1.15-0.426-1.444
		c-0.284-0.294-0.745-0.441-1.383-0.441c-0.629,0-1.09,0.104-1.384,0.312c-0.294,0.208-0.486,0.494-0.577,0.859l-1.201-0.137
		c0.142-0.719,0.481-1.244,1.019-1.573c0.537-0.329,1.267-0.494,2.188-0.494c0.567,0,1.047,0.068,1.437,0.206
		c0.391,0.137,0.707,0.332,0.95,0.585c0.243,0.253,0.418,0.568,0.524,0.942c0.106,0.375,0.159,0.796,0.159,1.262v5.107h-1.276
		V18.864z M336.623,16.006l-1.262,0.046c-0.537,0.02-0.983,0.071-1.338,0.152s-0.636,0.19-0.844,0.327s-0.354,0.307-0.44,0.509
		s-0.129,0.436-0.129,0.699c0,0.395,0.118,0.712,0.356,0.95s0.631,0.356,1.179,0.356c0.78,0,1.388-0.192,1.823-0.577
		c0.437-0.385,0.654-0.912,0.654-1.581V16.006z"/>
	<path fill="#999999" d="M338.735,12.084h1.443l1.581,6.262l1.809-6.216h1.338l1.764,6.216l1.565-6.262h1.398l-2.295,7.859h-1.398
		l-1.764-6.263l-1.778,6.263h-1.384L338.735,12.084z"/>
	<path fill="#999999" d="M350.5,9.09h1.322v10.853H350.5V9.09z"/>
	<path fill="#999999" d="M360.38,17.739c-0.132,0.76-0.469,1.357-1.011,1.793c-0.543,0.437-1.32,0.654-2.334,0.654
		c-1.195,0-2.112-0.362-2.751-1.087s-0.958-1.735-0.958-3.032c0-0.679,0.092-1.282,0.273-1.809c0.183-0.527,0.438-0.968,0.768-1.322
		c0.33-0.355,0.723-0.626,1.179-0.813s0.952-0.281,1.489-0.281c0.608,0,1.13,0.097,1.565,0.289c0.437,0.192,0.793,0.458,1.072,0.798
		c0.278,0.34,0.486,0.743,0.623,1.208c0.137,0.466,0.205,0.978,0.205,1.535v0.669h-5.837c0,0.395,0.054,0.763,0.159,1.102
		c0.106,0.34,0.259,0.633,0.456,0.881c0.198,0.248,0.443,0.443,0.737,0.585c0.294,0.143,0.634,0.213,1.019,0.213
		c0.659,0,1.141-0.124,1.444-0.372s0.512-0.585,0.623-1.011H360.38z M359.179,15.353c0-0.375-0.041-0.715-0.122-1.019
		c-0.081-0.304-0.207-0.565-0.38-0.783c-0.172-0.218-0.395-0.388-0.669-0.509c-0.273-0.122-0.603-0.183-0.987-0.183
		c-0.699,0-1.244,0.213-1.635,0.639c-0.39,0.425-0.62,1.043-0.691,1.854H359.179z"/>
	<path fill="#999999" d="M361.946,12.084h1.308V13.3c0.293-0.436,0.638-0.77,1.033-1.003c0.396-0.233,0.815-0.35,1.262-0.35
		c0.273,0,0.507,0.021,0.699,0.061l-0.167,1.231c-0.102-0.02-0.203-0.038-0.305-0.053c-0.101-0.015-0.213-0.022-0.334-0.022
		c-0.243,0-0.492,0.043-0.745,0.129c-0.253,0.086-0.491,0.231-0.714,0.434c-0.224,0.192-0.398,0.416-0.524,0.668
		c-0.127,0.253-0.19,0.547-0.19,0.882v4.667h-1.322V12.084z"/>
	<path fill="#999999" d="M370.761,13.133h-1.23v-1.049h1.23V11.4c0-0.425,0.063-0.79,0.19-1.094s0.299-0.555,0.517-0.752
		s0.472-0.344,0.76-0.441c0.289-0.096,0.596-0.144,0.92-0.144c0.233,0,0.456,0.013,0.669,0.038c0.213,0.025,0.436,0.074,0.669,0.145
		l-0.213,1.034c-0.162-0.051-0.316-0.083-0.464-0.099c-0.146-0.015-0.291-0.023-0.433-0.023c-0.355,0-0.659,0.094-0.912,0.281
		c-0.254,0.188-0.38,0.53-0.38,1.026v0.714h1.991v1.049h-1.991v6.81h-1.323V13.133z"/>
	<path fill="#999999" d="M378.287,20.186c-0.598,0-1.13-0.097-1.596-0.289c-0.467-0.192-0.861-0.466-1.186-0.82
		c-0.325-0.355-0.573-0.791-0.745-1.308c-0.173-0.517-0.259-1.094-0.259-1.733c0-0.638,0.092-1.216,0.273-1.733
		c0.183-0.517,0.441-0.958,0.775-1.322c0.335-0.365,0.737-0.646,1.209-0.844c0.471-0.197,0.995-0.296,1.573-0.296
		c0.587,0,1.114,0.097,1.581,0.289c0.466,0.192,0.863,0.469,1.192,0.828c0.33,0.36,0.58,0.793,0.753,1.3
		c0.172,0.507,0.259,1.079,0.259,1.718c0,0.648-0.089,1.231-0.267,1.748c-0.178,0.516-0.431,0.958-0.76,1.322
		c-0.329,0.365-0.732,0.646-1.209,0.844C379.407,20.087,378.875,20.186,378.287,20.186z M378.302,19.091
		c0.425,0,0.79-0.076,1.094-0.228c0.305-0.152,0.555-0.365,0.753-0.639c0.197-0.273,0.342-0.6,0.433-0.98
		c0.092-0.38,0.138-0.798,0.138-1.254c0-0.446-0.046-0.856-0.138-1.231c-0.091-0.375-0.235-0.696-0.433-0.965
		c-0.198-0.269-0.448-0.479-0.753-0.631c-0.304-0.152-0.669-0.228-1.094-0.228c-0.426,0-0.788,0.076-1.087,0.228
		c-0.3,0.152-0.548,0.362-0.745,0.631s-0.342,0.59-0.434,0.965c-0.091,0.375-0.137,0.791-0.137,1.247
		c0,0.456,0.046,0.872,0.137,1.247c0.092,0.375,0.233,0.699,0.426,0.973s0.441,0.486,0.745,0.639
		C377.511,19.015,377.876,19.091,378.302,19.091z"/>
	<path fill="#999999" d="M383.591,12.084h1.308V13.3c0.293-0.436,0.638-0.77,1.033-1.003c0.396-0.233,0.815-0.35,1.262-0.35
		c0.273,0,0.507,0.021,0.699,0.061l-0.167,1.231c-0.102-0.02-0.203-0.038-0.305-0.053c-0.101-0.015-0.213-0.022-0.334-0.022
		c-0.243,0-0.492,0.043-0.745,0.129c-0.253,0.086-0.491,0.231-0.714,0.434c-0.224,0.192-0.398,0.416-0.524,0.668
		c-0.127,0.253-0.19,0.547-0.19,0.882v4.667h-1.322V12.084z"/>
	<path fill="#999999" d="M391.1,9.09h1.581l2.265,8.922l2.355-8.877h1.505l2.342,8.877l2.249-8.922h1.49l-3.01,10.853h-1.475
		l-2.417-9.075l-2.371,9.075h-1.429L391.1,9.09z"/>
	<path fill="#999999" d="M411.971,17.739c-0.132,0.76-0.469,1.357-1.011,1.793c-0.543,0.437-1.32,0.654-2.334,0.654
		c-1.195,0-2.112-0.362-2.751-1.087s-0.958-1.735-0.958-3.032c0-0.679,0.092-1.282,0.273-1.809c0.183-0.527,0.438-0.968,0.768-1.322
		c0.33-0.355,0.723-0.626,1.179-0.813s0.952-0.281,1.489-0.281c0.608,0,1.13,0.097,1.565,0.289c0.437,0.192,0.793,0.458,1.072,0.798
		c0.278,0.34,0.486,0.743,0.623,1.208c0.137,0.466,0.205,0.978,0.205,1.535v0.669h-5.837c0,0.395,0.054,0.763,0.159,1.102
		c0.106,0.34,0.259,0.633,0.456,0.881c0.198,0.248,0.443,0.443,0.737,0.585c0.294,0.143,0.634,0.213,1.019,0.213
		c0.659,0,1.141-0.124,1.444-0.372s0.512-0.585,0.623-1.011H411.971z M410.77,15.353c0-0.375-0.041-0.715-0.122-1.019
		c-0.081-0.304-0.207-0.565-0.38-0.783c-0.172-0.218-0.395-0.388-0.669-0.509c-0.273-0.122-0.603-0.183-0.987-0.183
		c-0.699,0-1.244,0.213-1.635,0.639c-0.39,0.425-0.62,1.043-0.691,1.854H410.77z"/>
	<path fill="#999999" d="M413.537,9.09h1.322v4.089c0.324-0.426,0.699-0.755,1.125-0.988c0.426-0.233,0.927-0.35,1.505-0.35
		c0.557,0,1.046,0.102,1.467,0.304c0.42,0.203,0.77,0.486,1.049,0.851c0.278,0.365,0.486,0.798,0.623,1.3s0.205,1.057,0.205,1.665
		c0,0.648-0.081,1.234-0.243,1.755c-0.162,0.522-0.395,0.965-0.699,1.33c-0.304,0.365-0.671,0.646-1.102,0.844
		c-0.431,0.198-0.915,0.297-1.452,0.297c-0.456,0-0.899-0.094-1.33-0.281s-0.818-0.51-1.162-0.966v1.004h-1.308V9.09z
		 M414.844,16.234c0,0.507,0.058,0.94,0.175,1.3c0.116,0.359,0.275,0.656,0.479,0.889c0.202,0.233,0.445,0.403,0.729,0.51
		c0.283,0.106,0.593,0.159,0.927,0.159c0.324,0,0.626-0.056,0.905-0.167c0.278-0.111,0.519-0.291,0.722-0.54
		c0.202-0.248,0.362-0.569,0.479-0.965c0.116-0.395,0.175-0.876,0.175-1.444c0-0.578-0.063-1.062-0.189-1.452
		c-0.127-0.39-0.292-0.702-0.494-0.935c-0.203-0.233-0.434-0.4-0.691-0.501c-0.259-0.101-0.524-0.152-0.799-0.152
		c-0.344,0-0.663,0.058-0.957,0.175s-0.55,0.289-0.768,0.517c-0.219,0.228-0.388,0.517-0.51,0.867
		c-0.121,0.35-0.182,0.752-0.182,1.208V16.234z"/>
	<path fill="#999999" d="M430.287,18.864c-0.284,0.345-0.644,0.641-1.079,0.889s-0.979,0.373-1.627,0.373
		c-0.395,0-0.758-0.049-1.087-0.145c-0.329-0.097-0.613-0.243-0.851-0.441c-0.238-0.197-0.424-0.443-0.555-0.737
		c-0.132-0.294-0.198-0.638-0.198-1.033c0-0.537,0.114-0.973,0.342-1.307c0.229-0.334,0.532-0.598,0.912-0.791
		c0.381-0.192,0.809-0.329,1.285-0.41c0.476-0.081,0.967-0.132,1.474-0.152l1.354-0.045v-0.304c0-0.668-0.143-1.15-0.426-1.444
		c-0.284-0.294-0.745-0.441-1.383-0.441c-0.629,0-1.09,0.104-1.384,0.312c-0.294,0.208-0.486,0.494-0.577,0.859l-1.201-0.137
		c0.142-0.719,0.481-1.244,1.019-1.573c0.537-0.329,1.267-0.494,2.188-0.494c0.567,0,1.047,0.068,1.437,0.206
		c0.391,0.137,0.707,0.332,0.95,0.585c0.243,0.253,0.418,0.568,0.524,0.942c0.106,0.375,0.159,0.796,0.159,1.262v5.107h-1.276
		V18.864z M430.256,16.006l-1.262,0.046c-0.537,0.02-0.983,0.071-1.338,0.152s-0.636,0.19-0.844,0.327s-0.354,0.307-0.44,0.509
		s-0.129,0.436-0.129,0.699c0,0.395,0.118,0.712,0.356,0.95s0.631,0.356,1.179,0.356c0.78,0,1.388-0.192,1.823-0.577
		c0.437-0.385,0.654-0.912,0.654-1.581V16.006z"/>
	<path fill="#999999" d="M433.266,12.084h1.308v1.201c0.385-0.517,0.811-0.887,1.276-1.11c0.466-0.223,0.958-0.334,1.475-0.334
		c0.892,0,1.553,0.243,1.983,0.73c0.431,0.486,0.646,1.201,0.646,2.143v5.229h-1.323v-4.971c0-0.729-0.132-1.244-0.395-1.543
		c-0.264-0.298-0.669-0.448-1.216-0.448c-0.295,0-0.586,0.051-0.874,0.152c-0.289,0.102-0.551,0.264-0.783,0.487
		c-0.254,0.223-0.446,0.458-0.578,0.707c-0.132,0.249-0.197,0.57-0.197,0.965v4.651h-1.322V12.084z"/>
	<path fill="#999999" d="M447.341,18.818c-0.324,0.436-0.699,0.772-1.124,1.011c-0.426,0.238-0.928,0.357-1.505,0.357
		c-0.578,0-1.077-0.106-1.498-0.319c-0.42-0.213-0.768-0.504-1.041-0.874s-0.477-0.808-0.607-1.314
		c-0.132-0.507-0.198-1.049-0.198-1.626c0-0.648,0.081-1.234,0.243-1.756s0.393-0.965,0.692-1.33
		c0.298-0.365,0.663-0.644,1.094-0.836s0.92-0.289,1.467-0.289c0.416,0,0.836,0.084,1.262,0.251s0.821,0.484,1.186,0.95V9.09h1.323
		v10.853h-1.293V18.818z M447.357,15.778c0-0.628-0.068-1.117-0.205-1.467s-0.362-0.646-0.677-0.889
		c-0.223-0.183-0.448-0.309-0.676-0.38c-0.229-0.071-0.479-0.106-0.753-0.106c-0.324,0-0.626,0.056-0.904,0.167
		c-0.279,0.112-0.522,0.292-0.729,0.54c-0.208,0.249-0.37,0.568-0.486,0.958c-0.117,0.39-0.175,0.864-0.175,1.421
		c0,0.578,0.062,1.064,0.189,1.459c0.127,0.395,0.294,0.709,0.502,0.942c0.208,0.233,0.44,0.4,0.699,0.502s0.524,0.152,0.798,0.152
		c0.294,0,0.558-0.036,0.791-0.106c0.232-0.071,0.466-0.192,0.699-0.365c0.304-0.243,0.534-0.547,0.691-0.912
		s0.235-0.826,0.235-1.383V15.778z"/>
	<path fill="#999999" d="M454.44,16.857c0.122,0.76,0.423,1.31,0.904,1.649s1.198,0.509,2.151,0.509
		c0.476,0,0.874-0.053,1.193-0.159c0.318-0.106,0.574-0.248,0.768-0.426c0.192-0.177,0.329-0.385,0.41-0.623
		c0.081-0.238,0.121-0.489,0.121-0.752c0-0.213-0.025-0.418-0.075-0.616c-0.051-0.197-0.15-0.377-0.297-0.54
		c-0.146-0.162-0.35-0.304-0.608-0.425c-0.258-0.122-0.59-0.218-0.995-0.289l-1.368-0.243c-0.537-0.091-1.014-0.213-1.429-0.365
		c-0.416-0.152-0.768-0.347-1.057-0.585c-0.289-0.238-0.507-0.534-0.653-0.889c-0.147-0.354-0.221-0.785-0.221-1.292
		c0-0.497,0.104-0.932,0.312-1.307s0.489-0.689,0.844-0.942s0.775-0.441,1.262-0.562s1.014-0.183,1.581-0.183
		c0.719,0,1.319,0.079,1.801,0.236s0.874,0.367,1.179,0.631c0.304,0.264,0.534,0.565,0.691,0.904
		c0.157,0.34,0.275,0.687,0.357,1.041l-1.308,0.259c-0.081-0.304-0.185-0.575-0.312-0.813c-0.127-0.238-0.294-0.436-0.502-0.593
		c-0.208-0.157-0.463-0.276-0.768-0.357c-0.304-0.081-0.674-0.122-1.109-0.122c-0.497,0-0.912,0.046-1.246,0.137
		c-0.335,0.091-0.604,0.215-0.806,0.372c-0.203,0.157-0.348,0.345-0.434,0.562c-0.086,0.218-0.129,0.449-0.129,0.692
		c0,0.264,0.032,0.494,0.099,0.691c0.065,0.198,0.177,0.37,0.334,0.517s0.362,0.269,0.616,0.365c0.253,0.096,0.567,0.18,0.942,0.25
		l1.52,0.274c1.125,0.213,1.951,0.565,2.478,1.056c0.527,0.492,0.791,1.214,0.791,2.166c0,0.436-0.084,0.843-0.251,1.223
		c-0.167,0.381-0.416,0.713-0.745,0.996c-0.329,0.284-0.742,0.507-1.238,0.669c-0.497,0.162-1.079,0.243-1.748,0.243
		c-0.639,0-1.219-0.063-1.741-0.19c-0.521-0.126-0.975-0.326-1.36-0.6c-0.385-0.274-0.694-0.624-0.927-1.049
		c-0.233-0.426-0.375-0.933-0.426-1.521H454.44z"/>
	<path fill="#999999" d="M466.463,20.186c-0.598,0-1.13-0.097-1.596-0.289c-0.467-0.192-0.861-0.466-1.186-0.82
		c-0.325-0.355-0.573-0.791-0.745-1.308c-0.173-0.517-0.259-1.094-0.259-1.733c0-0.638,0.092-1.216,0.273-1.733
		c0.183-0.517,0.441-0.958,0.775-1.322c0.335-0.365,0.737-0.646,1.209-0.844c0.471-0.197,0.995-0.296,1.573-0.296
		c0.587,0,1.114,0.097,1.581,0.289c0.466,0.192,0.863,0.469,1.192,0.828c0.33,0.36,0.58,0.793,0.753,1.3
		c0.172,0.507,0.259,1.079,0.259,1.718c0,0.648-0.089,1.231-0.267,1.748c-0.178,0.516-0.431,0.958-0.76,1.322
		c-0.329,0.365-0.732,0.646-1.209,0.844C467.583,20.087,467.051,20.186,466.463,20.186z M466.479,19.091
		c0.425,0,0.79-0.076,1.094-0.228c0.305-0.152,0.555-0.365,0.753-0.639c0.197-0.273,0.342-0.6,0.433-0.98
		c0.092-0.38,0.138-0.798,0.138-1.254c0-0.446-0.046-0.856-0.138-1.231c-0.091-0.375-0.235-0.696-0.433-0.965
		c-0.198-0.269-0.448-0.479-0.753-0.631c-0.304-0.152-0.669-0.228-1.094-0.228c-0.426,0-0.788,0.076-1.087,0.228
		c-0.3,0.152-0.548,0.362-0.745,0.631s-0.342,0.59-0.434,0.965c-0.091,0.375-0.137,0.791-0.137,1.247
		c0,0.456,0.046,0.872,0.137,1.247c0.092,0.375,0.233,0.699,0.426,0.973s0.441,0.486,0.745,0.639
		C465.688,19.015,466.053,19.091,466.479,19.091z"/>
	<path fill="#999999" d="M478.579,17.283c-0.132,0.902-0.477,1.611-1.033,2.128c-0.558,0.517-1.343,0.775-2.356,0.775
		c-0.598,0-1.127-0.097-1.588-0.289c-0.462-0.192-0.847-0.469-1.155-0.828c-0.31-0.359-0.543-0.796-0.699-1.307
		c-0.157-0.512-0.236-1.087-0.236-1.726c0-0.628,0.086-1.201,0.259-1.717c0.172-0.517,0.42-0.958,0.745-1.323
		c0.324-0.365,0.719-0.648,1.186-0.851c0.466-0.203,0.993-0.304,1.58-0.304c0.943,0,1.673,0.231,2.189,0.692
		s0.846,1.097,0.988,1.908l-1.323,0.243c-0.051-0.253-0.119-0.486-0.205-0.699s-0.205-0.398-0.356-0.555
		c-0.152-0.157-0.338-0.278-0.556-0.365c-0.218-0.086-0.479-0.129-0.782-0.129c-0.416,0-0.771,0.079-1.064,0.235
		c-0.294,0.157-0.534,0.375-0.722,0.654s-0.324,0.605-0.41,0.98c-0.087,0.375-0.13,0.775-0.13,1.201
		c0,0.426,0.041,0.826,0.122,1.201c0.081,0.375,0.213,0.702,0.396,0.98c0.182,0.278,0.42,0.499,0.714,0.661s0.653,0.243,1.079,0.243
		c0.639,0,1.112-0.162,1.422-0.486c0.309-0.324,0.509-0.765,0.6-1.322H478.579z"/>
	<path fill="#999999" d="M479.946,9.09h1.414v1.535h-1.414V9.09z M479.992,12.084h1.322v7.859h-1.322V12.084z"/>
	<path fill="#999999" d="M487.972,18.864c-0.284,0.345-0.644,0.641-1.079,0.889s-0.979,0.373-1.627,0.373
		c-0.395,0-0.758-0.049-1.087-0.145c-0.329-0.097-0.613-0.243-0.851-0.441c-0.238-0.197-0.424-0.443-0.555-0.737
		c-0.132-0.294-0.198-0.638-0.198-1.033c0-0.537,0.114-0.973,0.342-1.307c0.229-0.334,0.532-0.598,0.912-0.791
		c0.381-0.192,0.809-0.329,1.285-0.41c0.476-0.081,0.967-0.132,1.474-0.152l1.354-0.045v-0.304c0-0.668-0.143-1.15-0.426-1.444
		c-0.284-0.294-0.745-0.441-1.383-0.441c-0.629,0-1.09,0.104-1.384,0.312c-0.294,0.208-0.486,0.494-0.577,0.859l-1.201-0.137
		c0.142-0.719,0.481-1.244,1.019-1.573c0.537-0.329,1.267-0.494,2.188-0.494c0.567,0,1.047,0.068,1.437,0.206
		c0.391,0.137,0.707,0.332,0.95,0.585c0.243,0.253,0.418,0.568,0.524,0.942c0.106,0.375,0.159,0.796,0.159,1.262v5.107h-1.276
		V18.864z M487.942,16.006l-1.262,0.046c-0.537,0.02-0.983,0.071-1.338,0.152s-0.636,0.19-0.844,0.327s-0.354,0.307-0.44,0.509
		s-0.129,0.436-0.129,0.699c0,0.395,0.118,0.712,0.356,0.95s0.631,0.356,1.179,0.356c0.78,0,1.388-0.192,1.823-0.577
		c0.437-0.385,0.654-0.912,0.654-1.581V16.006z"/>
	<path fill="#999999" d="M490.982,9.09h1.322v10.853h-1.322V9.09z"/>
	<path fill="#999999" d="M497.335,9.09h1.732l3.496,9.181l3.557-9.181h1.673v10.853h-1.292v-8.558l-3.405,8.558h-1.14l-3.345-8.527
		v8.527h-1.276V9.09z"/>
	<path fill="#999999" d="M516.503,17.739c-0.132,0.76-0.469,1.357-1.011,1.793c-0.543,0.437-1.32,0.654-2.334,0.654
		c-1.195,0-2.112-0.362-2.751-1.087s-0.958-1.735-0.958-3.032c0-0.679,0.092-1.282,0.273-1.809c0.183-0.527,0.438-0.968,0.768-1.322
		c0.33-0.355,0.723-0.626,1.179-0.813s0.952-0.281,1.489-0.281c0.608,0,1.13,0.097,1.565,0.289c0.437,0.192,0.793,0.458,1.072,0.798
		c0.278,0.34,0.486,0.743,0.623,1.208c0.137,0.466,0.205,0.978,0.205,1.535v0.669h-5.837c0,0.395,0.054,0.763,0.159,1.102
		c0.106,0.34,0.259,0.633,0.456,0.881c0.198,0.248,0.443,0.443,0.737,0.585c0.294,0.143,0.634,0.213,1.019,0.213
		c0.659,0,1.141-0.124,1.444-0.372s0.512-0.585,0.623-1.011H516.503z M515.302,15.353c0-0.375-0.041-0.715-0.122-1.019
		c-0.081-0.304-0.207-0.565-0.38-0.783c-0.172-0.218-0.395-0.388-0.669-0.509c-0.273-0.122-0.603-0.183-0.987-0.183
		c-0.699,0-1.244,0.213-1.635,0.639c-0.39,0.425-0.62,1.043-0.691,1.854H515.302z"/>
	<path fill="#999999" d="M523.784,18.818c-0.324,0.436-0.699,0.772-1.124,1.011c-0.426,0.238-0.928,0.357-1.505,0.357
		c-0.578,0-1.077-0.106-1.498-0.319c-0.42-0.213-0.768-0.504-1.041-0.874s-0.477-0.808-0.607-1.314
		c-0.132-0.507-0.198-1.049-0.198-1.626c0-0.648,0.081-1.234,0.243-1.756s0.393-0.965,0.692-1.33
		c0.298-0.365,0.663-0.644,1.094-0.836s0.92-0.289,1.467-0.289c0.416,0,0.836,0.084,1.262,0.251s0.821,0.484,1.186,0.95V9.09h1.323
		v10.853h-1.293V18.818z M523.799,15.778c0-0.628-0.068-1.117-0.205-1.467s-0.362-0.646-0.677-0.889
		c-0.223-0.183-0.448-0.309-0.676-0.38c-0.229-0.071-0.479-0.106-0.753-0.106c-0.324,0-0.626,0.056-0.904,0.167
		c-0.279,0.112-0.522,0.292-0.729,0.54c-0.208,0.249-0.37,0.568-0.486,0.958c-0.117,0.39-0.175,0.864-0.175,1.421
		c0,0.578,0.062,1.064,0.189,1.459c0.127,0.395,0.294,0.709,0.502,0.942c0.208,0.233,0.44,0.4,0.699,0.502s0.524,0.152,0.798,0.152
		c0.294,0,0.558-0.036,0.791-0.106c0.232-0.071,0.466-0.192,0.699-0.365c0.304-0.243,0.534-0.547,0.691-0.912
		s0.235-0.826,0.235-1.383V15.778z"/>
	<path fill="#999999" d="M526.808,9.09h1.414v1.535h-1.414V9.09z M526.854,12.084h1.322v7.859h-1.322V12.084z"/>
	<path fill="#999999" d="M534.834,18.864c-0.284,0.345-0.644,0.641-1.079,0.889s-0.979,0.373-1.627,0.373
		c-0.395,0-0.758-0.049-1.087-0.145c-0.329-0.097-0.613-0.243-0.851-0.441c-0.238-0.197-0.424-0.443-0.555-0.737
		c-0.132-0.294-0.198-0.638-0.198-1.033c0-0.537,0.114-0.973,0.342-1.307c0.229-0.334,0.532-0.598,0.912-0.791
		c0.381-0.192,0.809-0.329,1.285-0.41c0.476-0.081,0.967-0.132,1.474-0.152l1.354-0.045v-0.304c0-0.668-0.143-1.15-0.426-1.444
		c-0.284-0.294-0.745-0.441-1.383-0.441c-0.629,0-1.09,0.104-1.384,0.312c-0.294,0.208-0.486,0.494-0.577,0.859l-1.201-0.137
		c0.142-0.719,0.481-1.244,1.019-1.573c0.537-0.329,1.267-0.494,2.188-0.494c0.567,0,1.047,0.068,1.437,0.206
		c0.391,0.137,0.707,0.332,0.95,0.585c0.243,0.253,0.418,0.568,0.524,0.942c0.106,0.375,0.159,0.796,0.159,1.262v5.107h-1.276
		V18.864z M534.804,16.006l-1.262,0.046c-0.537,0.02-0.983,0.071-1.338,0.152s-0.636,0.19-0.844,0.327s-0.354,0.307-0.44,0.509
		s-0.129,0.436-0.129,0.699c0,0.395,0.118,0.712,0.356,0.95s0.631,0.356,1.179,0.356c0.78,0,1.388-0.192,1.823-0.577
		c0.437-0.385,0.654-0.912,0.654-1.581V16.006z"/>
</g>
</svg>
